<svg width="60" height="60" viewBox="0 0 60 60" fill="none" xmlns="http://www.w3.org/2000/svg">
<path d="M30.0001 60C46.1871 60 59.3093 46.8778 59.3093 30.6908C59.3093 14.5038 46.1871 1.38165 30.0001 1.38165C13.8131 1.38165 0.690918 14.5038 0.690918 30.6908C0.690918 46.8778 13.8131 60 30.0001 60Z" fill="url(#paint0_radial)"/>
<path d="M47.5345 44.7658C47.285 43.8491 47.1971 42.8962 47.2747 41.9493L47.9412 35.2225C48.1677 32.4793 47.7497 29.7309 46.5352 27.2607C43.4049 20.8928 44.118 20.4444 44.02 14.0809C44.02 12.7869 42.9709 11.7379 41.6769 11.7379C40.3829 11.7379 39.3338 12.7869 39.3338 14.0809C39.3338 14.9169 39.3338 37.7286 39.3338 37.6393C39.3338 38.0144 39.2928 38.3797 39.2166 38.7319V42.0718C39.2166 44.9138 36.9046 47.2259 34.0626 47.2259C32.1753 47.2259 25.6677 47.2259 21.2385 47.2259C23.2093 49.969 25.9065 52.117 29.0372 53.4171C29.0566 53.4252 29.0759 53.4333 29.0953 53.4415C31.6995 54.5413 33.4519 56.9906 33.7286 59.7661C39.8057 58.9945 45.3015 56.3613 49.628 52.4571L47.5345 44.7658Z" fill="#FFEAD7"/>
<path d="M12.5407 11.8198L11.8271 11.1586C10.727 10.1393 8.9929 10.2054 7.97358 11.3054C6.95427 12.4056 7.02036 14.1397 8.12054 15.159L12.5408 19.2547V11.8198H12.5407Z" fill="#FFEAD7"/>
<path d="M9.42908 12.7762C8.86587 12.2544 8.57559 11.5452 8.56129 10.8296C8.34894 10.9578 8.15007 11.1151 7.97358 11.3056C6.95427 12.4058 7.02036 14.1399 8.12054 15.1592L12.5408 19.2548V15.6595L9.42908 12.7762Z" fill="#F9D6BF"/>
<path d="M34.1801 0C32.4029 0 19.3354 0 17.5742 0C14.7322 0 12.4202 2.31215 12.4202 5.15401V42.189C12.4202 45.031 14.7323 47.343 17.5742 47.343C20.1703 47.343 31.5755 47.343 34.1801 47.343C37.0221 47.343 39.3341 45.0309 39.3341 42.189V5.15401C39.3341 2.31215 37.0219 0 34.1801 0Z" fill="#4F4F4F"/>
<path d="M17.9264 42.189V5.15401C17.9264 2.31204 20.2386 0 23.0804 0C20.455 0 18.2302 0 17.5742 0C14.7322 0 12.4202 2.31215 12.4202 5.15401V42.189C12.4202 45.031 14.7323 47.343 17.5742 47.343C18.5215 47.343 20.6425 47.343 23.0804 47.343C20.2385 47.3432 17.9264 45.031 17.9264 42.189Z" fill="#333333"/>
<path d="M36.4782 42.1891C36.4782 43.4585 35.4491 44.4875 34.1797 44.4875C32.4218 44.4875 19.3508 44.4875 17.5738 44.4875C16.3044 44.4875 15.2754 43.4585 15.2754 42.1891C15.2754 41.0189 15.2754 6.34621 15.2754 5.15403C15.2754 3.88463 16.3044 2.85559 17.5738 2.85559H18.8402C19.3152 2.85559 19.7002 3.24068 19.7002 3.71565V4.26105C19.7002 4.9929 20.299 5.59162 21.0307 5.59162C23.0242 5.59162 28.7298 5.59162 30.7228 5.59162C31.4545 5.59162 32.0532 4.9929 32.0532 4.26105V3.71565C32.0532 3.24068 32.4383 2.85559 32.9133 2.85559H34.1796C35.449 2.85559 36.4781 3.88463 36.4781 5.15403C36.4782 13.1258 36.4782 34.7583 36.4782 42.1891Z" fill="#FF7A00"/>
<path d="M17.9261 5.15403C17.9261 4.32843 18.1224 3.54807 18.4689 2.85559H17.5738C16.3044 2.85559 15.2754 3.88463 15.2754 5.15403C15.2754 6.34609 15.2754 41.0189 15.2754 42.1891C15.2754 43.4585 16.3044 44.4875 17.5738 44.4875C17.7583 44.4875 18.0661 44.4875 18.4689 44.4875C18.1223 43.795 17.9261 43.0147 17.9261 42.1891V5.15403Z" fill="#C56003"/>
<path d="M28.7985 3.68782H25.9509C25.4913 3.68782 25.1187 3.31515 25.1187 2.85554C25.1187 2.39592 25.4913 2.02325 25.9509 2.02325H28.7985C29.2581 2.02325 29.6308 2.39592 29.6308 2.85554C29.6308 3.31515 29.2583 3.68782 28.7985 3.68782Z" fill="#71457F"/>
<path d="M23.0305 3.68774C22.5645 3.68774 22.1982 3.30523 22.1982 2.85546C22.1982 2.31662 22.6963 1.93716 23.1937 2.03982C23.5653 2.10931 23.8628 2.44787 23.8628 2.85546C23.8628 3.30722 23.4979 3.68774 23.0305 3.68774Z" fill="#71457F"/>
<path d="M16.509 26.2013C15.6121 27.1693 14.1004 27.2268 13.1325 26.33L9.13038 22.6217C8.1624 21.7249 8.10486 20.2131 9.00171 19.2453C9.89856 18.2773 11.4103 18.2197 12.3782 19.1166L16.3803 22.8248C17.3483 23.7217 17.406 25.2333 16.509 26.2013Z" fill="#FFEAD7"/>
<path d="M14.6855 24.4988L10.6834 20.7906C10.064 20.2167 9.81943 19.3915 9.95701 18.6178C9.60368 18.7426 9.27426 18.9513 9.00191 19.2452C8.10506 20.2131 8.16272 21.7249 9.13059 22.6217L13.1327 26.3299C14.1007 27.2268 15.6123 27.1691 16.5092 26.2013C16.8323 25.8526 17.0294 25.4332 17.1069 24.9976C16.2969 25.2838 15.3596 25.1234 14.6855 24.4988Z" fill="#F9D6BF"/>
<path d="M16.509 32.7184C15.6121 33.6864 14.1004 33.7439 13.1325 32.8471L9.13038 29.1388C8.1624 28.242 8.10486 26.7302 9.00171 25.7623C9.89856 24.7944 11.4103 24.7368 12.3782 25.6337L16.3803 29.3419C17.3483 30.2388 17.406 31.7504 16.509 32.7184Z" fill="#FFEAD7"/>
<path d="M14.6855 31.0159L10.6834 27.3077C10.064 26.7338 9.81943 25.9086 9.95701 25.1349C9.60368 25.2597 9.27426 25.4684 9.00191 25.7623C8.10506 26.7302 8.16272 28.2419 9.13059 29.1388L13.1327 32.847C14.1007 33.7439 15.6123 33.6862 16.5092 32.7183C16.8323 32.3697 17.0294 31.9503 17.1069 31.5147C16.2969 31.8009 15.3596 31.6404 14.6855 31.0159Z" fill="#F9D6BF"/>
<path d="M16.509 39.2353C15.6121 40.2033 14.1004 40.2609 13.1325 39.364L9.13038 35.6558C8.1624 34.7589 8.10486 33.2472 9.00171 32.2793C9.89856 31.3113 11.4103 31.2538 12.3782 32.1506L16.3803 35.8589C17.3483 36.7557 17.406 38.2675 16.509 39.2353Z" fill="#FFEAD7"/>
<path d="M14.6855 37.533L10.6834 33.8248C10.064 33.2509 9.81943 32.4257 9.95701 31.652C9.60368 31.7768 9.27426 31.9855 9.00191 32.2794C8.10506 33.2474 8.16272 34.759 9.13059 35.6559L13.1327 39.3641C14.1007 40.261 15.6123 40.2033 16.5092 39.2354C16.8323 38.8868 17.0294 38.4674 17.1069 38.0318C16.2969 38.3179 15.3596 38.1575 14.6855 37.533Z" fill="#F9D6BF"/>
<path d="M47.3287 43.762C43.9552 49.0655 38.0264 52.5846 31.2753 52.5846C29.4861 52.5846 27.755 52.337 26.1135 51.875C27.0352 52.4735 28.0126 52.9916 29.0374 53.4172C29.0567 53.4253 29.0762 53.4334 29.0955 53.4416C31.6997 54.5414 33.4522 56.9907 33.7289 59.7662C39.806 58.9946 45.3017 56.3614 49.6282 52.4572L47.5346 44.7658C47.4447 44.4352 47.3765 44.0999 47.3287 43.762Z" fill="#F9D6BF"/>
<path d="M27.2977 41.9146H24.447C23.9869 41.9146 23.6138 41.5416 23.6138 41.0814C23.6138 40.6212 23.9868 40.2482 24.447 40.2482H27.2977C27.7578 40.2482 28.131 40.6212 28.131 41.0814C28.131 41.5416 27.758 41.9146 27.2977 41.9146Z" fill="#383838"/>
<path d="M21.5053 20.0416C23.0683 20.0416 24.3353 18.7745 24.3353 17.2115C24.3353 15.6486 23.0683 14.3815 21.5053 14.3815C19.9423 14.3815 18.6753 15.6486 18.6753 17.2115C18.6753 18.7745 19.9423 20.0416 21.5053 20.0416Z" fill="#EAE456"/>
<path d="M21.5057 17.2118C20.9821 16.3049 21.0183 15.2288 21.5059 14.3823C21.0248 14.3818 20.5373 14.5032 20.0907 14.761C18.7372 15.5424 18.2735 17.2732 19.0549 18.6266C19.8363 19.9802 21.5671 20.4439 22.9205 19.6625C23.367 19.4047 23.716 19.0431 23.9561 18.6263C22.9792 18.6254 22.0293 18.1187 21.5057 17.2118Z" fill="#C9C335"/>
<path d="M34.1799 2.85559H32.9135C32.4385 2.85559 32.0535 3.24068 32.0535 3.71565V4.26105C32.0535 4.9929 31.4547 5.59162 30.723 5.59162C28.7302 5.59162 23.0245 5.59162 21.0309 5.59162C20.2992 5.59162 19.7005 4.9929 19.7005 4.26105V3.71565C19.7005 3.24068 19.3154 2.85559 18.8404 2.85559H17.5741C16.3047 2.85559 15.2756 3.88463 15.2756 5.15403C15.2756 5.43881 15.2756 7.63576 15.2756 10.8295H36.4784C36.4784 8.58582 36.4784 6.63414 36.4784 5.15403C36.4783 3.88463 35.4493 2.85559 34.1799 2.85559Z" fill="#FFB800"/>
<path d="M15.2754 5.15403C15.2754 5.43881 15.2754 7.63576 15.2754 10.8295H17.9261V5.15403C17.9261 4.32843 18.1223 3.54807 18.4689 2.85559H17.5738C16.3044 2.85559 15.2754 3.88463 15.2754 5.15403Z" fill="#E6A500"/>
<path d="M30.2385 20.0416C31.8014 20.0416 33.0685 18.7745 33.0685 17.2115C33.0685 15.6486 31.8014 14.3815 30.2385 14.3815C28.6755 14.3815 27.4084 15.6486 27.4084 17.2115C27.4084 18.7745 28.6755 20.0416 30.2385 20.0416Z" fill="#EAE456"/>
<path d="M30.2393 17.2118C29.7157 16.3049 29.7519 15.2288 30.2396 14.3823C29.7585 14.3818 29.271 14.5032 28.8244 14.761C27.4708 15.5424 27.0071 17.2732 27.7885 18.6266C28.5699 19.9802 30.3007 20.4439 31.6542 19.6625C32.1006 19.4047 32.4496 19.0431 32.6898 18.6263C31.7129 18.6254 30.7629 18.1187 30.2393 17.2118Z" fill="#C9C335"/>
<path d="M21.5053 28.53C23.0683 28.53 24.3353 27.263 24.3353 25.7C24.3353 24.137 23.0683 22.87 21.5053 22.87C19.9423 22.87 18.6753 24.137 18.6753 25.7C18.6753 27.263 19.9423 28.53 21.5053 28.53Z" fill="#EAE456"/>
<path d="M21.5057 25.7014C20.9821 24.7944 21.0183 23.7184 21.5059 22.8718C21.0248 22.8714 20.5373 22.9928 20.0907 23.2506C18.7372 24.032 18.2735 25.7628 19.0549 27.1162C19.8363 28.4697 21.5671 28.9335 22.9205 28.152C23.367 27.8942 23.716 27.5327 23.9561 27.1159C22.9792 27.1149 22.0293 26.6083 21.5057 25.7014Z" fill="#C9C335"/>
<path d="M30.2377 28.53C31.8007 28.53 33.0677 27.263 33.0677 25.7C33.0677 24.137 31.8007 22.87 30.2377 22.87C28.6748 22.87 27.4077 24.137 27.4077 25.7C27.4077 27.263 28.6748 28.53 30.2377 28.53Z" fill="#EAE456"/>
<path d="M30.2393 25.7014C29.7157 24.7944 29.7519 23.7184 30.2396 22.8718C29.7585 22.8714 29.271 22.9928 28.8244 23.2506C27.4708 24.032 27.0071 25.7628 27.7885 27.1162C28.5699 28.4697 30.3007 28.9335 31.6542 28.152C32.1006 27.8942 32.4496 27.5327 32.6898 27.1159C31.7129 27.1149 30.7629 26.6083 30.2393 25.7014Z" fill="#C9C335"/>
<path d="M21.5053 37.0846C23.0683 37.0846 24.3353 35.8176 24.3353 34.2546C24.3353 32.6916 23.0683 31.4246 21.5053 31.4246C19.9423 31.4246 18.6753 32.6916 18.6753 34.2546C18.6753 35.8176 19.9423 37.0846 21.5053 37.0846Z" fill="#EAE456"/>
<path d="M21.5057 34.2558C20.9821 33.3489 21.0183 32.2729 21.5059 31.4263C21.0248 31.4258 20.5373 31.5472 20.0907 31.805C18.7372 32.5865 18.2735 34.3172 19.0549 35.6707C19.8363 37.0242 21.5671 37.4879 22.9205 36.7065C23.367 36.4487 23.716 36.0872 23.9561 35.6703C22.9792 35.6695 22.0293 35.1629 21.5057 34.2558Z" fill="#C9C335"/>
<path d="M30.2387 37.0846C31.8017 37.0846 33.0687 35.8176 33.0687 34.2546C33.0687 32.6916 31.8017 31.4246 30.2387 31.4246C28.6757 31.4246 27.4087 32.6916 27.4087 34.2546C27.4087 35.8176 28.6757 37.0846 30.2387 37.0846Z" fill="#EAE456"/>
<path d="M30.2393 34.2558C29.7157 33.3489 29.7519 32.2729 30.2396 31.4263C29.7585 31.4258 29.271 31.5472 28.8244 31.805C27.4708 32.5865 27.0071 34.3172 27.7885 35.6707C28.5699 37.0242 30.3007 37.4879 31.6542 36.7065C32.1006 36.4487 32.4496 36.0872 32.6898 35.6703C31.7129 35.6695 30.7629 35.1629 30.2393 34.2558Z" fill="#C9C335"/>
<defs>
<radialGradient id="paint0_radial" cx="0" cy="0" r="1" gradientUnits="userSpaceOnUse" gradientTransform="translate(30.0001 30.6908) rotate(90) scale(29.3092)">
<stop stop-color="#052BB3"/>
<stop offset="1" stop-color="#001E89"/>
</radialGradient>
</defs>
</svg>
