<svg width="60" height="60" viewBox="0 0 60 60" fill="none" xmlns="http://www.w3.org/2000/svg">
<path d="M60 30C60 33.4249 59.4257 36.7163 58.369 39.7824C55.969 46.7424 51.0808 52.5416 44.7673 56.1184C40.4082 58.5894 35.3694 60 30 60C24.6306 60 19.5918 58.5894 15.2327 56.1184C8.91918 52.5416 4.03102 46.7424 1.63102 39.7824C0.574286 36.7163 0 33.4249 0 30C0 26.2714 0.679592 22.702 1.92367 19.4082C3.40898 15.4702 5.7 11.9278 8.59469 8.98041C14.0388 3.43714 21.6184 0 30 0C38.3816 0 45.9612 3.43714 51.4053 8.98041C54.3 11.9278 56.591 15.4702 58.0763 19.4082C59.3204 22.702 60 26.2714 60 30Z" fill="url(#paint0_radial)"/>
<path d="M18.6854 0.941006C18.1869 1.4395 18.1869 2.24778 18.6854 2.74639L26.5837 10.6447C27.0822 11.1432 27.8905 11.1432 28.3891 10.6447C28.8876 10.1462 28.8876 9.33794 28.3891 8.83933L20.4908 0.941006C19.9922 0.442516 19.1839 0.442516 18.6854 0.941006Z" fill="#55D485"/>
<path d="M41.3144 0.941006C41.8129 1.4395 41.8129 2.24778 41.3144 2.74639L33.4161 10.6447C32.9176 11.1432 32.1093 11.1432 31.6107 10.6447C31.1122 10.1462 31.1122 9.33794 31.6107 8.83933L39.509 0.941006C40.0076 0.442516 40.8159 0.442516 41.3144 0.941006Z" fill="#55D485"/>
<path d="M58.369 39.7825C55.969 46.7425 51.0808 52.5416 44.7674 56.1184C34.9225 56.5714 25.0776 56.5714 15.2327 56.1184C8.91919 52.5416 4.03103 46.7425 1.63103 39.7825C1.37021 32.9914 1.46817 26.2004 1.92368 19.4082C2.07797 17.0731 2.27634 14.7392 2.51634 12.4041C2.69389 10.6702 4.03715 9.31225 5.70858 9.18613C6.67103 9.11388 7.63226 9.04531 8.5947 8.98041C22.8649 8.03021 37.1339 8.03021 51.4053 8.98041C52.3678 9.04531 53.329 9.11388 54.2914 9.18613C55.9616 9.31225 57.3049 10.6702 57.4837 12.4041C57.7237 14.7392 57.9221 17.0731 58.0763 19.4082C58.5318 26.2004 58.6286 32.9914 58.369 39.7825Z" fill="#2F373B"/>
<path d="M51.4714 42.9599C51.2358 45.567 49.1451 47.6252 46.5334 47.7924C46.1007 47.8202 45.6667 47.8469 45.234 47.8712C34.6445 48.4955 24.0561 48.4688 13.4666 47.7924C10.8537 47.6253 8.76402 45.567 8.52733 42.9599C7.77084 34.6039 7.77084 26.2477 8.52733 17.8917C8.76402 15.2846 10.8536 13.2264 13.4666 13.0592C24.0561 12.3828 34.6445 12.3561 45.234 12.9804C45.6667 13.0047 46.1007 13.0314 46.5334 13.0592C49.1451 13.2262 51.2359 15.2846 51.4714 17.8917C52.2291 26.2477 52.2291 34.6039 51.4714 42.9599Z" fill="#FFB800"/>
<path d="M47.6798 43.7071C47.5232 45.4417 46.5915 46.9477 45.234 47.8712C34.6445 48.4955 24.0561 48.4688 13.4666 47.7924C10.8537 47.6253 8.76402 45.567 8.52733 42.9599C7.77084 34.6039 7.77084 26.2477 8.52733 17.8917C8.76402 15.2846 10.8536 13.2264 13.4666 13.0592C24.0561 12.3828 34.6445 12.3561 45.234 12.9804C46.5915 13.9039 47.5232 15.4099 47.6798 17.1445C48.4827 25.9983 48.4827 34.8533 47.6798 43.7071Z" fill="#FF7A00"/>
<path d="M43.2867 53.8535C44.1239 53.8535 44.8026 53.1748 44.8026 52.3376C44.8026 51.5004 44.1239 50.8217 43.2867 50.8217C42.4495 50.8217 41.7708 51.5004 41.7708 52.3376C41.7708 53.1748 42.4495 53.8535 43.2867 53.8535Z" fill="url(#paint1_radial)"/>
<path d="M38.0208 53.8535C38.858 53.8535 39.5367 53.1748 39.5367 52.3376C39.5367 51.5004 38.858 50.8217 38.0208 50.8217C37.1836 50.8217 36.5049 51.5004 36.5049 52.3376C36.5049 53.1748 37.1836 53.8535 38.0208 53.8535Z" fill="#55D485"/>
<defs>
<radialGradient id="paint0_radial" cx="0" cy="0" r="1" gradientUnits="userSpaceOnUse" gradientTransform="translate(30 30) rotate(90) scale(30)">
<stop stop-color="#052BB3"/>
<stop offset="1" stop-color="#001E89"/>
</radialGradient>
<radialGradient id="paint1_radial" cx="0" cy="0" r="1" gradientUnits="userSpaceOnUse" gradientTransform="translate(43.2867 52.3376) rotate(90) scale(1.51592)">
<stop stop-color="#052BB3"/>
<stop offset="1" stop-color="#001E89"/>
</radialGradient>
</defs>
</svg>
