<svg width="60" height="60" viewBox="0 0 60 60" fill="none" xmlns="http://www.w3.org/2000/svg">
<g clip-path="url(#clip0)">
<path d="M30.0001 60.0001C46.5686 60.0001 60.0001 46.5686 60.0001 30.0001C60.0001 13.4315 46.5686 0 30.0001 0C13.4315 0 0 13.4315 0 30.0001C0 46.5686 13.4315 60.0001 30.0001 60.0001Z" fill="url(#paint0_radial)"/>
<path d="M29.8403 40.8656C29.8403 29.4408 26.325 18.4954 24.6072 7.31036C32.4367 5.15322 40.5459 5.15322 48.3755 7.31036C46.6178 18.4954 43.1424 29.4408 43.1424 40.8656C38.7085 40.8656 34.2743 40.8656 29.8403 40.8656Z" fill="#71D456"/>
<path d="M30.9186 36.032C30.4393 27.8828 28.8813 19.8536 27.5232 11.6246C29.5605 11.305 31.0784 9.78708 30.9186 8.06939C34.6737 7.62995 38.3488 7.62995 42.1037 8.06939C41.9439 9.78708 43.4219 11.3051 45.4991 11.6246C44.141 19.8536 42.5831 27.883 42.1037 36.032C40.8254 36.032 39.7868 37.3103 39.7469 38.9481C37.5897 38.9481 35.4326 38.9481 33.2755 38.9481C33.2356 37.3502 32.1571 36.032 30.9186 36.032Z" fill="#FCFCFD"/>
<path d="M36.4714 29.6406C33.795 29.6406 31.2784 27.044 30.799 23.8083C30.3196 20.5726 32.9162 17.6166 36.4714 17.5767C40.0266 17.5767 42.6232 20.5726 42.1438 23.8083C41.6645 27.044 39.1479 29.6406 36.4714 29.6406Z" fill="#71D456"/>
<path d="M36.4714 13.7418C35.5925 13.7418 34.8335 13.1026 34.8335 12.3036C34.7936 11.5047 35.5525 10.8256 36.4714 10.8256C37.4301 10.8256 38.1491 11.5046 38.1092 12.3036C38.1092 13.1026 37.3502 13.7418 36.4714 13.7418Z" fill="#71D456"/>
<path d="M36.4714 36.112C35.8722 36.112 35.3928 35.5128 35.3928 34.7138C35.3928 33.9549 35.8722 33.3156 36.4714 33.3156C37.0706 33.3156 37.5499 33.9547 37.5499 34.7138C37.5499 35.4729 37.0707 36.112 36.4714 36.112Z" fill="#71D456"/>
<path d="M34.9134 26.1252C36.1118 26.1252 37.0706 25.0067 37.1105 23.6485C37.1105 23.0493 37.5899 22.6099 38.1092 22.6099C38.6684 22.6099 39.1079 23.0892 39.0679 23.6884C39.0679 23.9681 38.9082 24.2477 38.7084 24.4474C38.4287 24.727 38.3888 25.1664 38.6285 25.4461C38.8681 25.7256 39.2676 25.7657 39.5074 25.486C39.827 25.2063 40.0666 24.8469 40.1864 24.4074C40.3462 24.4074 40.5061 24.4074 40.6658 24.4074C41.0254 24.4074 41.3449 24.1277 41.3848 23.7284C41.4248 23.3289 41.1452 23.0094 40.7856 23.0094C40.6259 23.0094 40.466 23.0094 40.3063 23.0094C40.1066 22.0107 39.2277 21.2118 38.1092 21.1718C36.7511 21.1319 35.7124 22.2903 35.7524 23.6486C35.7524 24.2478 35.3529 24.6872 34.7936 24.7272C34.2743 24.7272 33.7949 24.2877 33.755 23.6885C33.755 23.4089 33.8349 23.1293 34.0346 22.9296C34.2742 22.6499 34.2742 22.2106 33.9946 21.9309C33.7149 21.6512 33.2756 21.6512 33.0359 21.9309C32.8362 22.2105 32.6763 22.61 32.5565 23.0095C32.3967 23.0095 32.2369 23.0095 32.0771 23.0095C31.7176 23.0095 31.438 23.369 31.4779 23.7285C31.5179 24.128 31.8375 24.4075 32.1969 24.4075C32.3567 24.4075 32.5166 24.4075 32.6364 24.4075C33.0758 25.4061 33.9547 26.1252 34.9134 26.1252Z" fill="#FCFCFD"/>
<path d="M48.5753 39.1478C48.5753 37.47 47.2171 36.1118 45.5393 36.1118H45.0599C46.7776 36.1118 48.1359 34.7136 48.096 32.9959C48.056 31.3581 46.6179 30.0798 44.9401 30.0798H28.9215L28.3622 26.6444L20.3329 35.233H14.7004V51.2516H16.8176C18.1358 51.2516 19.4541 51.6911 20.5327 52.45C22.1705 53.6484 24.128 54.2875 26.1252 54.2875H44.4608C46.1385 54.2875 47.5766 53.0093 47.6166 51.3714C47.6565 49.6537 46.2984 48.2556 44.5806 48.2556H44.9401C46.6179 48.2556 48.056 46.9773 48.096 45.3395C48.1359 43.6218 46.7778 42.2236 45.0599 42.2236H45.5393C47.2171 42.1438 48.5753 40.7856 48.5753 39.1478Z" fill="#F7CFA2"/>
<path d="M12.3836 54.2876H15.4995V34.7137H0.359619C1.63788 42.743 6.1119 49.6938 12.3836 54.2876Z" fill="#FF7A00"/>
</g>
<defs>
<radialGradient id="paint0_radial" cx="0" cy="0" r="1" gradientUnits="userSpaceOnUse" gradientTransform="translate(30.0001 30.0001) rotate(90) scale(30.0001)">
<stop stop-color="#052BB3"/>
<stop offset="1" stop-color="#001E89"/>
</radialGradient>
<clipPath id="clip0">
<rect width="60" height="60" fill="white"/>
</clipPath>
</defs>
</svg>
