<svg width="28" height="46" viewBox="0 0 28 46" fill="none" xmlns="http://www.w3.org/2000/svg">
<path d="M14 45.2222C10.3164 45.2222 6.78372 43.7589 4.17905 41.1543C1.57437 38.5496 0.111084 35.0169 0.111084 31.3333V14.6667C0.111084 10.9831 1.57437 7.4504 4.17905 4.84573C6.78372 2.24106 10.3164 0.777771 14 0.777771C17.6835 0.777771 21.2162 2.24106 23.8209 4.84573C26.4256 7.4504 27.8889 10.9831 27.8889 14.6667V31.3333C27.8889 33.1572 27.5296 34.9633 26.8316 36.6484C26.1337 38.3335 25.1106 39.8646 23.8209 41.1543C22.5312 42.444 21.0001 43.467 19.315 44.165C17.6299 44.863 15.8239 45.2222 14 45.2222ZM14 3.55555C11.0531 3.55555 8.22697 4.72618 6.14323 6.80992C4.05949 8.89365 2.88886 11.7198 2.88886 14.6667V31.3333C2.88886 34.2802 4.05949 37.1063 6.14323 39.1901C8.22697 41.2738 11.0531 42.4444 14 42.4444C16.9468 42.4444 19.773 41.2738 21.8567 39.1901C23.9405 37.1063 25.1111 34.2802 25.1111 31.3333V14.6667C25.1111 11.7198 23.9405 8.89365 21.8567 6.80992C19.773 4.72618 16.9468 3.55555 14 3.55555Z" fill="#F2F2F2"/>
<path d="M14 18.8333C13.6316 18.8333 13.2783 18.687 13.0179 18.4265C12.7574 18.1661 12.6111 17.8128 12.6111 17.4444V11.8889C12.6111 11.5205 12.7574 11.1673 13.0179 10.9068C13.2783 10.6463 13.6316 10.5 14 10.5C14.3683 10.5 14.7216 10.6463 14.9821 10.9068C15.2425 11.1673 15.3889 11.5205 15.3889 11.8889V17.4444C15.3889 17.8128 15.2425 18.1661 14.9821 18.4265C14.7216 18.687 14.3683 18.8333 14 18.8333Z" fill="#F2F2F2"/>
</svg>
