<svg width="50" height="50" viewBox="0 0 50 50" fill="none" xmlns="http://www.w3.org/2000/svg">
<path d="M0 20C0 8.9543 8.95431 0 20 0H30C41.0457 0 50 8.95431 50 20V50H20C8.9543 50 0 41.0457 0 30V20Z" fill="#FF7A00"/>
<path d="M36 15.9998C35.0424 16.6753 33.9821 17.1919 32.86 17.5298C32.2577 16.8373 31.4573 16.3465 30.567 16.1237C29.6767 15.901 28.7395 15.957 27.8821 16.2843C27.0247 16.6115 26.2884 17.1942 25.773 17.9535C25.2575 18.7128 24.9877 19.6121 25 20.5298V21.5298C23.2426 21.5754 21.5013 21.1856 19.931 20.3952C18.3607 19.6049 17.0103 18.4384 16 16.9998C16 16.9998 12 25.9998 21 29.9998C18.9405 31.3978 16.4872 32.0987 14 31.9998C23 36.9998 34 31.9998 34 20.4998C33.9991 20.2213 33.9723 19.9434 33.92 19.6698C34.9406 18.6633 35.6608 17.3925 36 15.9998V15.9998Z" stroke="#FAFAF9" stroke-width="2" stroke-linecap="round" stroke-linejoin="round"/>
</svg>
