<svg width="31" height="31" viewBox="0 0 31 31" fill="none" xmlns="http://www.w3.org/2000/svg">
<path fill-rule="evenodd" clip-rule="evenodd" d="M4.07352 0C1.82378 0 0 1.82378 0 4.07352V19.8482C0 21.1677 0.6273 22.3406 1.59993 23.085C2.31941 24.2377 3.59916 25.0046 5.05804 25.0046H25.4596C27.7093 25.0046 29.5331 23.1808 29.5331 20.931V5.15633C29.5331 3.8369 28.9058 2.664 27.9332 1.91958C27.2137 0.766913 25.934 0 24.4751 0H4.07352ZM27.9332 1.91958C27.2474 1.39468 26.3899 1.08281 25.4596 1.08281H5.05804C2.8083 1.08281 0.984517 2.90659 0.984517 5.15633V20.931C0.984517 21.7219 1.2099 22.4601 1.59993 23.085C2.28573 23.6099 3.14321 23.9218 4.07353 23.9218H24.4751C26.7248 23.9218 28.5486 22.098 28.5486 19.8482V4.07352C28.5486 3.28266 28.3232 2.54444 27.9332 1.91958Z" fill="#F5F5F5"/>
<path d="M4.2166 1.8942C3.26951 2.12843 2.21039 3.10608 1.80304 4.12446L1.56881 4.70493L1.53826 13.6361C1.50771 23.5552 1.49753 23.4024 2.16966 24.4412C2.51591 24.9911 3.04547 25.4697 3.60558 25.765C4.28789 26.1113 5.04149 26.1418 12.4859 26.1418H19.8487V28.3314C19.8487 30.3987 19.8589 30.5209 20.0321 30.4292C20.1237 30.3681 20.806 29.8182 21.5291 29.1868C22.2623 28.5656 23.3622 27.6185 23.9936 27.0991L25.124 26.1418H26.2849C28.2606 26.1418 29.1669 25.8669 30.002 25.0013C30.2362 24.767 30.5621 24.2884 30.7149 23.9523L31 23.3413V13.9213V4.50126L30.6639 3.81894C30.2973 3.06534 29.6659 2.43394 28.9123 2.07751L28.4541 1.85347L16.4881 1.8331C9.90935 1.8331 4.38973 1.85347 4.2166 1.8942ZM14.3699 7.811L14.4004 11.1717L16.4372 8.91084C18.7285 6.36489 19.3905 5.63166 20.0524 4.92898L20.5107 4.44016L21.7124 4.47071L22.9039 4.50126L21.967 5.57056C20.7857 6.91482 16.4372 11.8438 16.1113 12.2002L15.8669 12.465L17.5676 14.7971C20.6838 19.0641 23.2705 22.6284 23.352 22.7506C23.4131 22.8525 23.1483 22.883 22.1605 22.883H20.8977L19.3497 20.8259C18.4943 19.6853 17.0278 17.7402 16.0909 16.4978L14.4004 14.237L14.3699 18.5549L14.3495 22.883H13.3311H12.3127V19.6751V16.4672H10.7342H9.15575V15.3979V14.3286H10.7342H12.3127V13.2593V12.19H10.7342H9.15575V11.0698V9.94959H10.7342H12.3127V7.19997V4.45034H13.3311H14.3495L14.3699 7.811Z" fill="#F5F5F5"/>
</svg>
