<svg width="40" height="40" viewBox="0 0 40 40" fill="none" xmlns="http://www.w3.org/2000/svg">
<path d="M27.0313 8.90625C26.6292 8.90625 26.2274 8.75211 25.9219 8.44406L21.1053 3.58766C20.8092 3.2893 20.4168 3.125 20 3.125C19.5832 3.125 19.1908 3.2893 18.8949 3.58766L14.0782 8.44406C13.4705 9.05672 12.4813 9.06086 11.8685 8.45312C11.2557 7.84547 11.2517 6.85609 11.8594 6.24344L16.676 1.38703C17.5632 0.492578 18.7437 0 20 0C21.2564 0 22.4368 0.492578 23.324 1.38703L28.1406 6.24344C28.7483 6.85609 28.7443 7.84547 28.1316 8.45312C27.827 8.75531 27.429 8.90625 27.0313 8.90625ZM23.324 38.613L28.1406 33.7566C28.7483 33.1439 28.7443 32.1545 28.1316 31.5469C27.5188 30.9392 26.5295 30.9433 25.9219 31.5559L21.1053 36.4123C20.8092 36.7107 20.4168 36.875 20 36.875C19.5832 36.875 19.1908 36.7107 18.8949 36.4123L14.0782 31.5559C13.4705 30.9434 12.4813 30.9391 11.8685 31.5469C11.2557 32.1545 11.2517 33.1439 11.8594 33.7566L16.676 38.613C17.5632 39.5074 18.7437 40 20 40C21.2564 40 22.4368 39.5074 23.324 38.613ZM25.3906 19.9219C25.3906 16.9064 22.9374 14.4531 19.9219 14.4531C16.9064 14.4531 14.4532 16.9064 14.4532 19.9219C14.4532 22.9373 16.9064 25.3906 19.9219 25.3906C22.9374 25.3906 25.3906 22.9373 25.3906 19.9219ZM22.2656 19.9219C22.2656 21.2142 21.2142 22.2656 19.9219 22.2656C18.6296 22.2656 17.5782 21.2142 17.5782 19.9219C17.5782 18.6295 18.6296 17.5781 19.9219 17.5781C21.2142 17.5781 22.2656 18.6295 22.2656 19.9219Z" fill="#F2F2F2"/>
</svg>
