<svg width="24" height="22" viewBox="0 0 24 22" fill="none" xmlns="http://www.w3.org/2000/svg">
<g clip-path="url(#clip0)">
<path d="M22.0001 15.4369V18.1538C22.0012 18.4061 21.9441 18.6557 21.8326 18.8868C21.721 19.1179 21.5574 19.3254 21.3521 19.4959C21.1469 19.6664 20.9046 19.7962 20.6408 19.877C20.377 19.9579 20.0974 19.9879 19.8201 19.9652C16.7429 19.6623 13.7871 18.71 11.1901 17.1848C8.77388 15.7943 6.72539 13.9391 5.19006 11.7508C3.50003 9.38814 2.4483 6.69814 2.12006 3.89874C2.09507 3.6483 2.12793 3.39589 2.21656 3.15757C2.30518 2.91926 2.44763 2.70027 2.63482 2.51455C2.82202 2.32883 3.04986 2.18044 3.30385 2.07884C3.55783 1.97724 3.8324 1.92464 4.11006 1.9244H7.11006C7.59536 1.92008 8.06585 2.07572 8.43382 2.36232C8.80179 2.64892 9.04213 3.04692 9.11005 3.48214C9.23668 4.35163 9.47151 5.20536 9.81006 6.02705C9.9446 6.3512 9.97372 6.7035 9.89396 7.04218C9.81421 7.38087 9.62892 7.69175 9.36005 7.93799L8.09006 9.08818C9.51361 11.3555 11.5865 13.2329 14.0901 14.5221L15.3601 13.372C15.6319 13.1285 15.9752 12.9606 16.3492 12.8884C16.7231 12.8162 17.1121 12.8426 17.4701 12.9644C18.3773 13.271 19.32 13.4837 20.2801 13.5984C20.7658 13.6604 21.2095 13.882 21.5266 14.221C21.8437 14.56 22.0122 14.9927 22.0001 15.4369Z" stroke="#FF7A00" stroke-width="2" stroke-linecap="round" stroke-linejoin="round"/>
</g>
<defs>
<clipPath id="clip0">
<rect width="24" height="21.7358" fill="white" transform="translate(0 0.113281)"/>
</clipPath>
</defs>
</svg>
