<svg width="60" height="60" viewBox="0 0 60 60" fill="none" xmlns="http://www.w3.org/2000/svg">
<path d="M29.9999 59.9999C46.5685 59.9999 59.9999 46.5685 59.9999 29.9999C59.9999 13.4314 46.5685 0 29.9999 0C13.4314 0 0 13.4314 0 29.9999C0 46.5685 13.4314 59.9999 29.9999 59.9999Z" fill="#001E89"/>
<path d="M51.5 50.9204C51.1045 51.3269 50.6979 51.7213 50.2804 52.1045C50.2743 52.1106 50.2682 52.1155 50.262 52.1216C49.7832 52.5624 49.2898 52.9861 48.7816 53.3939C48.075 53.9633 47.3404 54.5009 46.5824 55.0041C46.5078 55.0542 46.433 55.1032 46.3571 55.1522C41.6526 58.2183 36.0346 59.9999 30.0003 59.9999C29.8914 59.9999 29.7812 59.9987 29.6722 59.9974H29.5987C29.0109 59.99 28.4282 59.9655 27.8489 59.9228C27.2979 59.8848 26.7518 59.8309 26.2093 59.7623C26.0599 59.7439 25.9105 59.7244 25.7624 59.7023C25.2714 59.6338 24.784 59.5518 24.3015 59.4587C24.0125 59.4036 23.7248 59.3436 23.4382 59.2799C23.4247 59.2774 23.4125 59.2738 23.399 59.2713H23.3979C23.0085 59.1844 22.6228 59.0889 22.2395 58.986L21.9676 58.9125C21.6076 58.8134 21.2512 58.7068 20.8974 58.5929C20.7835 58.5574 20.6709 58.5207 20.557 58.4828C20.4358 58.4436 20.3158 58.4032 20.1958 58.3603C20.0232 58.3015 19.8505 58.2403 19.6792 58.1767C19.4967 58.1093 19.3155 58.0407 19.1342 57.971L2.43475 18.1457L0.106934 12.5963L8.50449 9.07467L30.145 0H30.1461L31.6351 3.54985L32.6735 6.02697L33.227 7.3458L34.0645 9.3442L34.3009 9.90869L35.1458 11.9217L43.0842 30.8535L43.2876 31.3385L47.2953 40.8944L47.6896 41.8336V41.8347L50.01 47.3669L51.5 50.9204Z" fill="#43C970"/>
<path d="M48.7816 53.3939C48.0751 53.9633 47.3404 54.5008 46.5825 55.004C46.5078 55.0542 46.433 55.1032 46.3571 55.1522C41.6526 58.2183 36.0346 59.9999 30.0004 59.9999C29.8914 59.9999 29.7813 59.9987 29.6723 59.9974H29.5988C29.011 59.99 28.4282 59.9655 27.8489 59.9227C27.2979 59.8848 26.7518 59.8309 26.2094 59.7623C26.06 59.7439 25.9105 59.7243 25.7624 59.7023C25.2714 59.6338 24.784 59.5517 24.3016 59.4587C24.0126 59.4036 23.7249 59.3436 23.4382 59.2799L19.6791 50.3166L6.83789 19.6947C7.32645 19.4792 7.76977 19.2036 8.16281 18.8803C8.40281 18.6819 8.62442 18.4664 8.82528 18.2338C9.66036 17.2799 10.1538 16.0664 10.2237 14.8003C10.269 13.9677 10.1318 13.1129 9.78774 12.2913L18.0262 8.83698L21.3923 7.4251L23.0453 6.73206C23.1114 6.89002 23.1849 7.04424 23.2633 7.19366C23.6355 7.89901 24.14 8.49655 24.7314 8.97034C25.1808 9.33034 25.6791 9.61687 26.2094 9.82499C26.4347 9.91441 26.6661 9.98905 26.9024 10.0491C27.0898 10.0969 27.2795 10.1335 27.4718 10.1605C28.4514 10.3062 29.4813 10.1948 30.4608 9.79066C30.4707 9.78702 30.4804 9.7821 30.4902 9.77847L30.4939 9.78702L32.8645 15.4417L38.7922 29.5748L39.0236 30.1258L39.6897 31.7152L42.9481 39.4822C42.9481 39.4833 42.9481 39.4833 42.9481 39.4833L45.5906 45.7858L47.2191 49.6674L48.7816 53.3939Z" fill="#3AB760"/>
<path d="M28.1779 47.2094C33.5835 47.2094 37.9657 42.8273 37.9657 37.4217C37.9657 32.016 33.5835 27.6339 28.1779 27.6339C22.7723 27.6339 18.3901 32.016 18.3901 37.4217C18.3901 42.8273 22.7723 47.2094 28.1779 47.2094Z" fill="#53D37A"/>
<path d="M53.0808 49.1633C52.8752 49.4119 52.6657 49.6555 52.4502 49.8968C52.1429 50.2458 51.8246 50.5874 51.5001 50.9204C51.1046 51.327 50.698 51.7213 50.2805 52.1045C50.2744 52.1106 50.2683 52.1155 50.2621 52.1216C49.7833 52.5625 49.2899 52.9861 48.7817 53.3939C48.0751 53.9633 47.3405 54.5009 46.5825 55.0041C46.5079 55.0542 46.4331 55.1032 46.3572 55.1522C41.6527 58.2183 36.0347 59.9999 30.0005 59.9999C29.8915 59.9999 29.7813 59.9987 29.6723 59.9974H29.5989C29.0111 59.9901 28.4283 59.9656 27.849 59.9228C27.298 59.8848 26.7519 59.8309 26.2094 59.7624C26.06 59.744 25.9106 59.7244 25.7625 59.7024C25.2715 59.6338 24.7841 59.5518 24.3016 59.4587C24.0126 59.4037 23.725 59.3437 23.4383 59.2799C23.4248 59.2774 23.4126 59.2738 23.3992 59.2713H23.398C23.0086 59.1844 22.6229 59.0889 22.2396 58.986L21.9677 58.9125L19.6792 50.3166L10.2238 14.8005L8.84375 9.61726L31.6351 3.54987L39.3641 1.49147L40.3205 1.23682L40.4931 1.88697L41.3111 4.95682L41.9466 7.34581L42.8686 10.8074L43.0853 11.6193L48.98 33.763L51.7301 44.094L51.7681 44.236L53.0808 49.1633Z" fill="#43C970"/>
<path d="M50.2805 52.1044C50.2744 52.1105 50.2683 52.1154 50.2621 52.1215C49.7832 52.5623 49.2899 52.986 48.7816 53.3938C48.0751 53.9632 47.3404 54.5007 46.5825 55.0039C46.5078 55.0541 46.4331 55.1031 46.3571 55.1521C41.6526 58.2182 36.0346 59.9998 30.0004 59.9998C29.8914 59.9998 29.7813 59.9986 29.6723 59.9973H29.5988C29.011 59.9899 28.4282 59.9654 27.849 59.9227C27.2979 59.8847 26.7519 59.8308 26.2094 59.7622C26.06 59.7438 25.9106 59.7243 25.7624 59.7022L23.0869 49.6541L21.8086 44.8554L18.9556 34.1411V34.14L14.5437 17.5677C15.0567 17.4208 15.5331 17.2089 15.9666 16.9421C16.2311 16.778 16.4809 16.5944 16.7111 16.3922C17.6686 15.5608 18.3237 14.4257 18.565 13.1803C18.7241 12.3624 18.7046 11.4967 18.4756 10.6358L24.7315 8.97049L26.2095 8.57744L30.8356 7.34556L32.3675 6.93787C32.4042 7.07626 32.4459 7.2122 32.4936 7.34568C32.7642 8.12685 33.1927 8.8151 33.7316 9.38568C33.9104 9.57307 34.1001 9.74815 34.301 9.90858C34.7356 10.2576 35.2194 10.5416 35.736 10.7497C35.785 10.7693 35.8352 10.7889 35.8855 10.8073C36.9508 11.204 38.1459 11.2861 39.3275 10.9714L44.8156 31.5844L45.0042 32.2921L47.2952 40.8942L47.6161 42.0966V42.0978L49.2373 48.1897L50.2805 52.1044Z" fill="#3AB760"/>
<path d="M33.2646 47.8277C38.6702 47.8277 43.0523 43.4456 43.0523 38.0399C43.0523 32.6343 38.6702 28.2522 33.2646 28.2522C27.8589 28.2522 23.4768 32.6343 23.4768 38.0399C23.4768 43.4456 27.8589 47.8277 33.2646 47.8277Z" fill="#53D37A"/>
<path d="M55.4442 45.9C55.4026 45.9661 55.3609 46.0322 55.3193 46.0971C54.6373 47.1673 53.8892 48.191 53.0809 49.1632C52.8752 49.4118 52.6658 49.6554 52.4503 49.8967C52.1429 50.2457 51.8247 50.5873 51.5002 50.9203C51.1047 51.3269 50.6981 51.7212 50.2806 52.1044C50.2745 52.1105 50.2684 52.1154 50.2622 52.1215C49.7834 52.5624 49.29 52.986 48.7818 53.3938C48.0752 53.9632 47.3406 54.5008 46.5826 55.004C46.508 55.0541 46.4332 55.1031 46.3573 55.1521C41.6528 58.2182 36.0348 59.9998 30.0006 59.9998C29.8916 59.9998 29.7814 59.9986 29.6724 59.9974H29.599C29.0111 59.99 28.4284 59.9655 27.8491 59.9227C27.2981 59.8847 26.752 59.8308 26.2095 59.7623C26.0601 59.7439 25.9107 59.7243 25.7626 59.7023C25.2716 59.6337 24.7842 59.5517 24.3017 59.4586L23.0871 49.6541L22.5642 45.4406L20.7765 31.0137L18.565 13.1802L18.0262 8.83694L17.905 7.85737L21.3924 7.42518L23.2634 7.19373L32.6736 6.02678L41.3112 4.95662L45.6752 4.41545L50.2316 3.85095L50.6651 7.34561L50.7925 8.37299L51.6313 15.1395L55.3194 44.8947L55.4442 45.9Z" fill="#43C970"/>
<path d="M52.4505 49.8969C52.1431 50.2458 51.8248 50.5874 51.5003 50.9205C51.1048 51.327 50.6983 51.7213 50.2808 52.1045C50.2747 52.1106 50.2686 52.1156 50.2624 52.1217C49.7835 52.5625 49.2902 52.9862 48.7819 53.394C48.0754 53.9634 47.3408 54.5009 46.5828 55.0041C46.5081 55.0543 46.4334 55.1033 46.3574 55.1523C41.6529 58.2184 36.035 60 30.0007 60C29.8917 60 29.7816 59.9988 29.6726 59.9975H29.5991C29.0113 59.9901 28.4285 59.9656 27.8493 59.9228L26.2501 47.0179L26.2097 46.6959L25.9416 44.5347L24.5775 33.5326L23.9653 28.587L22.4678 16.511C22.9955 16.4364 23.4963 16.2906 23.9629 16.0861C24.2469 15.96 24.5188 15.8117 24.7747 15.6428C25.3307 15.2803 25.8156 14.8236 26.2098 14.2983C26.5698 13.8207 26.8552 13.2856 27.0498 12.7138C27.3179 11.9252 27.4172 11.0644 27.3082 10.1816L27.4723 10.1607L30.4613 9.79088L30.4943 9.78724L33.7319 9.38564L34.0649 9.34404L41.5747 8.41345C41.6848 9.29752 41.991 10.1081 42.4465 10.8074C42.6339 11.0988 42.8481 11.3694 43.0857 11.6192C43.4677 12.0246 43.9086 12.3711 44.3922 12.6491C45.4232 13.2405 46.6489 13.516 47.9199 13.3581L50.6958 35.7491L51.7305 44.0941L51.7538 44.279L52.4505 49.8969Z" fill="#3AB760"/>
<path d="M38.2199 49.1341C43.6255 49.1341 48.0076 44.752 48.0076 39.3463C48.0076 33.9407 43.6255 29.5586 38.2199 29.5586C32.8143 29.5586 28.4321 33.9407 28.4321 39.3463C28.4321 44.752 32.8143 49.1341 38.2199 49.1341Z" fill="#53D37A"/>
<path d="M58.7819 7.34558V38.488C58.0044 41.128 56.8742 43.6174 55.4439 45.8999C55.4023 45.966 55.3606 46.0321 55.319 46.097C54.637 47.1671 53.8889 48.1909 53.0806 49.1631C52.8749 49.4116 52.6655 49.6553 52.45 49.8966C52.1426 50.2455 51.8244 50.5872 51.4999 50.9202C51.1044 51.3267 50.6978 51.7211 50.2803 52.1043C50.2742 52.1104 50.2681 52.1153 50.2619 52.1214C49.7831 52.5622 49.2897 52.9859 48.7815 53.3937C48.0749 53.9631 47.3403 54.5006 46.5823 55.0038C46.5077 55.054 46.4329 55.103 46.357 55.152C41.6525 58.2181 36.0345 59.9997 30.0003 59.9997C29.8913 59.9997 29.7811 59.9985 29.6721 59.9972H29.5986C29.0108 59.9898 28.4281 59.9653 27.8488 59.9226C27.2978 59.8846 26.7517 59.8307 26.2092 59.7621V7.34558H58.7819Z" fill="#53D37A"/>
<path d="M55.3192 16.4964V46.0972C54.6372 47.1673 53.889 48.1911 53.0808 49.1633C52.8751 49.4118 52.6657 49.6555 52.4502 49.8967C52.1428 50.2457 51.8245 50.5873 51.5001 50.9204C51.1045 51.3269 50.698 51.7212 50.2805 52.1044C50.2744 52.1105 50.2683 52.1155 50.2621 52.1216C49.7833 52.5624 49.2899 52.986 48.7816 53.3939C48.0751 53.9633 47.3405 54.5008 46.5825 55.004C46.5079 55.0542 46.4331 55.1032 46.3571 55.1521C41.6526 58.2183 36.0347 59.9999 30.0004 59.9999C29.8915 59.9999 29.7813 59.9987 29.6723 59.9974V44.1173L29.6711 34.5797V16.4939C30.205 16.4854 30.7206 16.402 31.2078 16.2551C31.5054 16.1657 31.7932 16.0518 32.0687 15.9159C32.3478 15.78 32.6136 15.6209 32.8646 15.442C33.6385 14.891 34.2678 14.1514 34.6867 13.2894C34.8948 12.8609 35.0503 12.4017 35.1458 11.9217C35.2156 11.5605 35.2536 11.1882 35.2536 10.8074H49.6303C49.6303 12.5425 50.4079 14.0964 51.6312 15.1396C51.7193 15.2155 51.8112 15.289 51.9042 15.3587C52.8554 16.0727 54.0383 16.4964 55.3192 16.4964Z" fill="#43C970"/>
<path d="M42.496 50.8815C47.9016 50.8815 52.2838 46.4994 52.2838 41.0938C52.2838 35.6882 47.9016 31.306 42.496 31.306C37.0904 31.306 32.7083 35.6882 32.7083 41.0938C32.7083 46.4994 37.0904 50.8815 42.496 50.8815Z" fill="#53D37A"/>
</svg>
