<svg width="60" height="60" viewBox="0 0 60 60" fill="none" xmlns="http://www.w3.org/2000/svg">
<path d="M60 30C60 39.7359 55.3616 48.3894 48.1739 53.8702C44.4282 56.7268 39.9894 58.7216 35.1539 59.558C33.48 59.8494 31.7571 60 30 60C28.118 60 26.2764 59.8261 24.4898 59.4943C23.5764 59.3254 22.6777 59.1148 21.7959 58.8649C21.4886 58.7768 21.1825 58.6849 20.8788 58.5882C18.9649 57.9784 17.1343 57.1813 15.409 56.2188C14.2654 55.5809 13.1681 54.8707 12.1225 54.0943C11.1809 53.3939 10.2809 52.6397 9.42855 51.8352C9.40043 51.8082 9.37219 51.7826 9.34523 51.7556C9.10641 51.5303 8.87262 51.3001 8.64363 51.0662C6.50813 48.9038 4.69957 46.4181 3.29871 43.6887C3.16277 43.4266 3.03176 43.1621 2.90438 42.8952C2.2848 41.5961 1.75582 40.2442 1.32598 38.8495C1.31004 38.7994 1.29539 38.7491 1.28063 38.6977C1.19367 38.4123 1.11164 38.1258 1.03324 37.8368C0.88875 37.298 0.757734 36.7532 0.642656 36.2033C0.221602 34.2025 0 32.127 0 30C0 28.8098 0.0698437 27.6355 0.204492 26.482C0.246094 26.1245 0.293906 25.7694 0.348984 25.4155C0.428555 24.8902 0.522891 24.3686 0.631875 23.8519C0.740859 23.3265 0.864492 22.8074 1.00043 22.293C1.22941 21.4286 1.49637 20.5787 1.79883 19.7474C5.98652 8.22738 17.0326 0 30 0C42.9674 0 54.0135 8.22738 58.2012 19.7474C58.2906 19.9923 58.3763 20.2384 58.4583 20.4858C59.4439 23.4319 59.9839 26.5801 59.9987 29.8532C60 29.902 60 29.951 60 30Z" fill="#4BC999"/>
<path d="M54.8019 34.1233C54.8019 33.261 54.1029 32.562 53.2405 32.562H52.7201C51.8578 32.562 51.1587 31.8629 51.1587 31.0006C51.1587 30.1383 50.4596 29.4393 49.5974 29.4393H25.6578C24.7956 29.4393 24.0964 30.1383 24.0964 31.0006C24.0964 31.8628 24.7955 32.562 25.6578 32.562H35.2858C36.1481 32.562 36.8473 33.261 36.8473 34.1233C36.8473 34.9855 36.1482 35.6847 35.2858 35.6847H30.9008C30.0385 35.6847 29.3395 36.3837 29.3395 37.246C29.3395 38.1082 30.0385 38.8074 30.9008 38.8074H32.2255C33.0878 38.8074 33.7868 39.5064 33.7868 40.3687C33.7868 41.2309 33.0878 41.9301 32.2255 41.9301H27.4794C26.6171 41.9301 25.918 42.6291 25.918 43.4914C25.918 44.3536 26.617 45.0528 27.4794 45.0528H49.9649C50.8271 45.0528 51.5263 44.3537 51.5263 43.4914C51.5263 42.6291 52.2253 41.9301 53.0876 41.9301H53.241C54.1032 41.9301 54.8023 41.231 54.8023 40.3687C54.8023 39.5064 54.1032 38.8074 53.241 38.8074H50.3785C49.5163 38.8074 48.8171 38.1083 48.8171 37.246C48.8171 36.3837 49.5162 35.6847 50.3785 35.6847H53.241C54.103 35.6845 54.8019 34.9855 54.8019 34.1233Z" fill="#5BD3A2"/>
<path d="M48.174 53.8702C44.4283 56.7269 39.9895 58.7216 35.154 59.558H30.812C30.381 59.558 29.9904 59.3829 29.7086 59.1C29.4258 58.8184 29.2507 58.4278 29.2507 57.9967C29.2507 57.1347 29.9498 56.4355 30.8118 56.4355H31.2465C31.6775 56.4355 32.0681 56.2605 32.351 55.9776C32.6326 55.696 32.8077 55.3054 32.8077 54.8742C32.8077 54.0122 32.1085 53.3131 31.2465 53.3131H26.9901C26.5591 53.3131 26.1685 53.138 25.8856 52.8551C25.604 52.5735 25.429 52.1829 25.429 51.7518C25.429 50.8898 26.1281 50.1906 26.9901 50.1906H40.1472C41.0093 50.1906 41.7084 50.8898 41.7084 51.7518C41.7084 52.6138 42.4076 53.313 43.2696 53.313H46.9786C47.4096 53.313 47.8002 53.488 48.0831 53.7709C48.1152 53.8029 48.1458 53.836 48.174 53.8702Z" fill="#5BD3A2"/>
<path d="M59.9987 29.8531H59.8603C59.4293 29.8531 59.0387 29.678 58.7558 29.3964C58.4742 29.1135 58.2991 28.7229 58.2991 28.2919C58.2991 27.4299 57.6 26.7307 56.738 26.7307H49.2771C48.8461 26.7307 48.4555 26.5556 48.1738 26.274C47.8909 25.9911 47.7158 25.6006 47.7158 25.1695C47.7158 24.3075 48.415 23.6084 49.277 23.6084H54.3084C54.7395 23.6084 55.13 23.4333 55.4129 23.1517C55.6945 22.8688 55.8696 22.4782 55.8696 22.0472C55.8696 21.1852 56.5687 20.486 57.4308 20.486H58.4582C59.4439 23.4319 59.9839 26.58 59.9987 29.8531Z" fill="#5BD3A2"/>
<path d="M18.8864 26.9767C18.8864 27.8388 18.1873 28.5379 17.3252 28.5379H4.96395C4.53294 28.5379 4.14235 28.3628 3.85946 28.0812C3.57786 27.7983 3.40278 27.4077 3.40278 26.9767C3.40278 26.1147 2.70481 25.4156 1.84161 25.4156H0.348877C0.428447 24.8902 0.522783 24.3686 0.631768 23.8519C0.740752 23.3266 0.864385 22.8074 1.00032 22.2931H14.2028C15.0648 22.2931 15.764 22.9922 15.764 23.8543C15.764 24.2853 15.9379 24.6759 16.2206 24.9588C16.5035 25.2404 16.8928 25.4154 17.3251 25.4154C17.7561 25.4154 18.1467 25.5905 18.4284 25.8721C18.7113 26.1551 18.8864 26.5457 18.8864 26.9767Z" fill="#5BD3A2"/>
<path d="M58.2012 19.7474H1.79883C3.53883 14.9609 6.46289 10.7425 10.2172 7.44621C13.4597 4.60055 17.3217 2.44172 21.5743 1.20012C24.2474 0.418828 27.0746 0 30 0C38.1367 0 45.5167 3.23883 50.9204 8.49797C53.6535 11.1575 55.8796 14.3326 57.4433 17.8665C57.7175 18.4825 57.9698 19.1106 58.2012 19.7474Z" fill="#001E89"/>
<path d="M57.4431 17.8666H45.05C44.619 17.8666 44.2284 17.6915 43.9467 17.4086C43.6638 17.127 43.4887 16.7364 43.4887 16.3053C43.4887 15.4433 44.1879 14.7441 45.0499 14.7441H45.4834C45.9144 14.7441 46.305 14.5691 46.5867 14.2862C46.8696 14.0046 47.0447 13.614 47.0447 13.1828C47.0447 12.3195 46.3455 11.6217 45.4835 11.6217H41.2284C40.7974 11.6217 40.4068 11.4466 40.1239 11.1637C39.8423 10.8821 39.6672 10.4915 39.6672 10.0604C39.6672 9.19707 40.3652 8.49792 41.2284 8.49792H50.9203C53.6533 11.1576 55.8794 14.3327 57.4431 17.8666Z" fill="#001E89"/>
<path d="M34.1069 9.0074C34.1069 9.86943 33.4077 10.5686 32.5457 10.5686H17.7134C17.2824 10.5686 16.8918 10.3935 16.6089 10.1106C16.3273 9.829 16.1522 9.43841 16.1522 9.00728C16.1522 8.14525 15.4531 7.44611 14.5911 7.44611H10.217C13.4595 4.60044 17.3215 2.44161 21.5742 1.20001H30.1162C30.5485 1.20001 30.9378 1.37509 31.2207 1.65669C31.5036 1.93958 31.6774 2.33017 31.6774 2.76118C31.6774 3.6245 30.9794 4.32365 30.1162 4.32365H25.086C24.2227 4.32365 23.5236 5.02161 23.5236 5.88482C23.5236 6.74685 24.2227 7.44599 25.086 7.44599H32.5456C32.9766 7.44599 33.3672 7.62107 33.6489 7.90396C33.9318 8.18568 34.1069 8.57638 34.1069 9.0074Z" fill="#001E89"/>
<path d="M3.84765 25.6039C3.04679 25.6039 2.26 25.5649 1.48738 25.4867C1.24761 25.4625 1.07347 25.2477 1.10253 25.0084V25.008C1.13078 24.7749 1.34125 24.6104 1.5748 24.6341C9.66906 25.4513 17.9608 21.6153 23.5319 18.2183C28.7536 15.0344 32.6021 11.6469 33.6828 10.6606C33.8547 10.5037 34.1198 10.513 34.2807 10.681L34.2809 10.6813C34.4471 10.855 34.4382 11.1315 34.2606 11.2934C33.1496 12.3069 29.2503 15.7353 23.9782 18.9499C20.3059 21.1891 16.6925 22.891 13.2378 24.0084C9.95535 25.0701 6.80863 25.6039 3.84765 25.6039Z" fill="#F2F2F2"/>
<path d="M35.1464 19.5625C35.1464 19.6715 35.1048 19.7816 35.0203 19.865C34.3223 20.558 32.4746 22.3519 29.8811 24.5634C29.1293 25.2038 28.3151 25.8809 27.4481 26.5752C27.4481 26.5752 27.4481 26.5764 27.4469 26.5764C26.1159 27.6429 24.66 28.7523 23.1146 29.847C19.0003 32.76 15.0661 34.9911 11.4195 36.4776C7.79622 37.9543 4.44735 38.6987 1.42896 38.6987C1.37997 38.6987 1.32981 38.6987 1.28083 38.6976C1.19388 38.4122 1.11185 38.1257 1.03345 37.8367C4.03954 37.9066 7.41431 37.1853 11.0963 35.6841C14.6817 34.2221 18.5584 32.0229 22.62 29.1477C25.1056 27.3882 27.3575 25.5857 29.2261 23.9963C29.3277 23.9106 29.4269 23.8248 29.5261 23.7404C31.9959 21.6232 33.7494 19.9187 34.4167 19.2563C34.582 19.0922 34.849 19.0909 35.0167 19.2538C35.1035 19.3384 35.1464 19.4499 35.1464 19.5625Z" fill="#F2F2F2"/>
<path d="M59.5728 11.4515L51.3797 0.704131C51.1961 0.466592 50.9108 0.312256 50.5887 0.312256H41.4418C41.1185 0.312256 40.8319 0.466592 40.6508 0.705303L40.6496 0.704131L32.4565 11.4515H39.43L32.4565 20.5972H40.4451V39.6257H42.4373V37.9224L46.0153 34.3457L49.5919 37.9224V39.6257H51.5841V20.5972H59.5727L52.6005 11.4515H59.5728ZM40.4451 18.605H36.4815L40.4451 13.4046V18.605ZM40.4451 9.45921H36.4815L40.4451 4.25761V9.45921ZM48.5671 2.30456L46.0153 4.85761L43.4622 2.30456H48.5671ZM43.4622 18.605L46.0153 16.0531L48.5671 18.605H43.4622ZM48.5671 20.5972L46.0153 23.1502L43.4622 20.5972H48.5671ZM43.4622 11.4515H48.5671L46.0153 14.0034L43.4622 11.4515ZM43.4622 9.45921L46.0153 6.90616L48.5671 9.45921H43.4622ZM42.4373 3.32948L44.9903 5.88136L42.4373 8.4344V3.32948ZM42.4373 12.4751L44.9903 15.0282L42.4373 17.5801V12.4751ZM42.4373 21.6221L44.9903 24.174L42.4373 26.727V21.6221ZM42.4373 35.874V30.7679L44.9903 33.3209L42.4373 35.874ZM42.4667 28.7475L46.0153 25.1989L49.5638 28.7475L46.0153 32.296L42.4667 28.7475ZM49.5921 35.874L47.039 33.3209L49.5921 30.7679V35.874ZM49.5921 26.727L47.039 24.174L49.5921 21.6221V26.727ZM49.5921 17.5801L47.039 15.0282L49.5921 12.4751V17.5801ZM49.5921 8.4344L47.039 5.88136L49.5921 3.32948V8.4344ZM51.5842 4.25761L55.5492 9.45921H51.5842V4.25761ZM55.5492 18.605H51.5842V13.4046L55.5492 18.605Z" fill="#5C5E70"/>
<path d="M32.5702 25.8581L32.5699 25.8558C32.5478 25.6287 32.707 25.4237 32.9329 25.3905C34.0273 25.2299 37.2379 24.6481 41.2023 22.9223C45.6361 20.9922 51.9358 17.1998 56.9548 10.0585C57.0901 9.86584 57.3542 9.81627 57.5483 9.94952L57.549 9.94998C57.745 10.0844 57.795 10.3537 57.6584 10.548C52.5158 17.8664 46.0577 21.7482 41.5126 23.7219C37.4338 25.493 34.2009 26.0764 33.0559 26.2402C32.8147 26.2751 32.5938 26.1006 32.5702 25.8581Z" fill="#F2F2F2"/>
<path d="M31.2237 37.9761L31.2235 37.9734C31.2139 37.7481 31.3798 37.5537 31.6038 37.5296C32.6726 37.414 35.7953 36.9336 39.7678 35.0474C44.2417 32.9234 50.7293 28.5353 56.3817 19.6687C56.5084 19.4699 56.771 19.4091 56.9707 19.5342L56.971 19.5344C57.1722 19.6604 57.2332 19.9273 57.1056 20.1275C51.3297 29.1885 44.6796 33.6727 40.0904 35.8429C35.9962 37.7792 32.8349 38.2653 31.6962 38.3838C31.4504 38.4095 31.2341 38.2231 31.2237 37.9761Z" fill="#F2F2F2"/>
<path d="M35.292 26.482L24.2141 11.951L24.2129 11.9522C23.9668 11.6301 23.5799 11.4207 23.1427 11.4207H10.7754C10.3383 11.4207 9.9513 11.6301 9.7052 11.9522L9.70403 11.951L0.631729 23.8518C0.450557 24.7152 0.308408 25.593 0.204346 26.482H8.0545L0.642744 36.2033C0.831299 37.1008 1.05911 37.9837 1.32606 38.8494H9.42852V51.835C10.2807 52.6395 11.1807 53.3939 12.1224 54.0942V52.6016L15.5743 56.0534L15.409 56.2188C17.1343 57.1813 18.9649 57.9784 20.8788 58.5882L18.3442 56.0536L21.796 52.6017V58.865C22.6776 59.1149 23.5765 59.3254 24.4899 59.4944V38.8495H35.2924L25.8635 26.482H35.292ZM9.42841 36.1555H4.06767L9.42852 29.1233V36.1555H9.42841ZM9.42841 23.7881H4.06767L9.42852 16.7559V23.7881H9.42841ZM20.4109 14.1146L16.959 17.5665L13.5071 14.1146C13.5072 14.1146 20.4109 14.1146 20.4109 14.1146ZM13.5072 36.1555L16.9591 32.7036L20.411 36.1555H13.5072ZM20.4109 38.8494L16.959 42.3013L13.5071 38.8494H20.4109ZM13.5072 26.482H20.4109L16.959 29.9339L13.5072 26.482ZM13.5072 23.7881L16.9591 20.3362L20.411 23.7881H13.5072ZM12.1223 15.4995L15.5742 18.9514L12.1223 22.4033V15.4995ZM12.1223 27.8669L15.5742 31.3188L12.1223 34.7707V27.8669ZM12.1223 40.2343L15.5742 43.6862L12.1223 47.1381V40.2343ZM16.959 54.6685L12.1602 49.8697L16.959 45.0709L21.7578 49.8697L16.959 54.6685ZM21.7958 47.1379L18.3439 43.6861L21.7958 40.2342V47.1379ZM21.7958 34.7706L18.3439 31.3187L21.7958 27.8668V34.7706ZM21.7958 22.4033L18.3439 18.9514L21.7958 15.4995V22.4033ZM24.4897 16.7559L29.8506 23.7881H24.4897V16.7559ZM29.8504 36.1555H24.4897V29.1233L29.8504 36.1555Z" fill="#5C5E70"/>
<path d="M29.9793 36.7519C29.2753 37.8197 27.0332 40.9813 23.1785 44.2752C20.0573 46.9421 15.4103 50.0462 9.3454 51.7556C9.10657 51.5303 8.87278 51.3001 8.6438 51.0662C10.4719 50.5826 12.2573 49.9446 13.9912 49.1561C17.0389 47.77 19.9348 45.9149 22.5981 43.6434C26.3476 40.445 28.5822 37.3005 29.2618 36.2781C29.3892 36.0871 29.6438 36.0307 29.8397 36.1495L29.8422 36.1507C30.0503 36.2755 30.1128 36.5486 29.9793 36.7519Z" fill="#F2F2F2"/>
<path d="M30.059 24.1556C30.059 24.2315 30.0394 24.3099 29.9954 24.3796C29.961 24.4347 29.9232 24.496 29.8815 24.5633C28.8909 26.1367 25.7648 30.7359 20.5581 35.0817C16.8087 38.2102 12.7287 40.6028 8.42829 42.1935C6.75192 42.8144 5.04017 43.3127 3.29888 43.6886C3.16294 43.4266 3.03192 43.1621 2.90454 42.8951C4.68005 42.5241 6.42368 42.0221 8.13063 41.3902C12.3392 39.8327 16.3347 37.4891 20.0082 34.4228C23.3927 31.5979 25.876 28.6739 27.4482 26.5751C28.3237 25.407 28.9163 24.4947 29.2261 23.9963C29.2396 23.973 29.2531 23.951 29.2666 23.9302C29.3266 23.8311 29.4221 23.7662 29.5261 23.7404C29.629 23.7134 29.7417 23.7257 29.8408 23.782C29.9806 23.8617 30.059 24.0062 30.059 24.1556Z" fill="#F2F2F2"/>
</svg>
