<svg width="165" height="49" viewBox="0 0 165 49" fill="none" xmlns="http://www.w3.org/2000/svg">
<rect width="165" height="49" rx="3.96635" fill="#1F1F1F"/>
<path d="M32.0713 25.854C32.0569 23.3949 33.171 21.5416 35.4209 20.1751C34.1626 18.3723 32.2588 17.3807 29.7493 17.1896C27.3732 17.0021 24.7735 18.5742 23.8216 18.5742C22.8156 18.5742 20.5153 17.2545 18.7052 17.2545C14.9698 17.3122 11 20.2328 11 26.1749C11 27.9308 11.3209 29.7444 11.9627 31.6121C12.8208 34.0712 15.9145 40.0962 19.1415 39.9988C20.8289 39.9592 22.0224 38.8018 24.2182 38.8018C26.3492 38.8018 27.4525 39.9988 29.3346 39.9988C32.5905 39.952 35.3885 34.475 36.2034 32.0088C31.8369 29.9499 32.0713 25.9801 32.0713 25.854ZM28.2818 14.8568C30.1098 12.6862 29.944 10.7103 29.8899 10C28.2746 10.0937 26.4069 11.0997 25.3432 12.3364C24.1714 13.6633 23.4827 15.3039 23.6305 17.1536C25.3756 17.287 26.9693 16.3892 28.2818 14.8568Z" fill="white"/>
<path d="M50.48 9C51.4333 9 52.2233 9.34 52.85 10.02C53.4833 10.6933 53.8 11.52 53.8 12.5C53.8 13.48 53.4833 14.31 52.85 14.99C52.2233 15.6633 51.4333 16 50.48 16H47.75V9H50.48ZM50.48 15.12C51.1933 15.12 51.7767 14.87 52.23 14.37C52.6833 13.87 52.91 13.2467 52.91 12.5C52.91 11.7533 52.6833 11.13 52.23 10.63C51.7767 10.13 51.1933 9.88 50.48 9.88H48.68V15.12H50.48ZM59.0577 15.37C58.5444 15.8767 57.9211 16.13 57.1877 16.13C56.4544 16.13 55.8311 15.8767 55.3177 15.37C54.8111 14.8633 54.5577 14.24 54.5577 13.5C54.5577 12.76 54.8111 12.1367 55.3177 11.63C55.8311 11.1233 56.4544 10.87 57.1877 10.87C57.9211 10.87 58.5444 11.1233 59.0577 11.63C59.5711 12.1367 59.8277 12.76 59.8277 13.5C59.8277 14.24 59.5711 14.8633 59.0577 15.37ZM57.1877 15.28C57.6877 15.28 58.1077 15.11 58.4477 14.77C58.7877 14.43 58.9577 14.0067 58.9577 13.5C58.9577 12.9933 58.7877 12.57 58.4477 12.23C58.1077 11.89 57.6877 11.72 57.1877 11.72C56.6944 11.72 56.2777 11.89 55.9377 12.23C55.5977 12.57 55.4277 12.9933 55.4277 13.5C55.4277 14.0067 55.5977 14.43 55.9377 14.77C56.2777 15.11 56.6944 15.28 57.1877 15.28ZM66.548 11H67.458L65.908 16H65.018L63.848 12.3L62.678 16H61.788L60.238 11H61.148L62.248 14.8L63.428 11H64.268L65.448 14.81L66.548 11ZM70.8434 10.87C71.43 10.87 71.9 11.0567 72.2534 11.43C72.6067 11.7967 72.7834 12.2967 72.7834 12.93V16H71.9134V12.98C71.9134 12.5733 71.8034 12.26 71.5834 12.04C71.3634 11.8133 71.06 11.7 70.6734 11.7C70.24 11.7 69.89 11.8367 69.6234 12.11C69.3567 12.3767 69.2234 12.79 69.2234 13.35V16H68.3534V11H69.2234V11.72C69.5767 11.1533 70.1167 10.87 70.8434 10.87ZM73.9979 16V8.7H74.8679V16H73.9979ZM80.4152 15.37C79.9018 15.8767 79.2785 16.13 78.5452 16.13C77.8118 16.13 77.1885 15.8767 76.6752 15.37C76.1685 14.8633 75.9152 14.24 75.9152 13.5C75.9152 12.76 76.1685 12.1367 76.6752 11.63C77.1885 11.1233 77.8118 10.87 78.5452 10.87C79.2785 10.87 79.9018 11.1233 80.4152 11.63C80.9285 12.1367 81.1852 12.76 81.1852 13.5C81.1852 14.24 80.9285 14.8633 80.4152 15.37ZM78.5452 15.28C79.0452 15.28 79.4652 15.11 79.8052 14.77C80.1452 14.43 80.3152 14.0067 80.3152 13.5C80.3152 12.9933 80.1452 12.57 79.8052 12.23C79.4652 11.89 79.0452 11.72 78.5452 11.72C78.0518 11.72 77.6352 11.89 77.2952 12.23C76.9552 12.57 76.7852 12.9933 76.7852 13.5C76.7852 14.0067 76.9552 14.43 77.2952 14.77C77.6352 15.11 78.0518 15.28 78.5452 15.28ZM86.3508 11H87.2208V16H86.3508V15.14C85.9174 15.8 85.2874 16.13 84.4608 16.13C83.7608 16.13 83.1641 15.8767 82.6708 15.37C82.1774 14.8567 81.9308 14.2333 81.9308 13.5C81.9308 12.7667 82.1774 12.1467 82.6708 11.64C83.1641 11.1267 83.7608 10.87 84.4608 10.87C85.2874 10.87 85.9174 11.2 86.3508 11.86V11ZM84.5708 15.29C85.0774 15.29 85.5008 15.12 85.8408 14.78C86.1808 14.4333 86.3508 14.0067 86.3508 13.5C86.3508 12.9933 86.1808 12.57 85.8408 12.23C85.5008 11.8833 85.0774 11.71 84.5708 11.71C84.0708 11.71 83.6508 11.8833 83.3108 12.23C82.9708 12.57 82.8008 12.9933 82.8008 13.5C82.8008 14.0067 82.9708 14.4333 83.3108 14.78C83.6508 15.12 84.0708 15.29 84.5708 15.29ZM92.6789 9H93.5489V16H92.6789V15.14C92.2456 15.8 91.6156 16.13 90.7889 16.13C90.0889 16.13 89.4922 15.8767 88.9989 15.37C88.5056 14.8567 88.2589 14.2333 88.2589 13.5C88.2589 12.7667 88.5056 12.1467 88.9989 11.64C89.4922 11.1267 90.0889 10.87 90.7889 10.87C91.6156 10.87 92.2456 11.2 92.6789 11.86V9ZM90.8989 15.29C91.4056 15.29 91.8289 15.12 92.1689 14.78C92.5089 14.4333 92.6789 14.0067 92.6789 13.5C92.6789 12.9933 92.5089 12.57 92.1689 12.23C91.8289 11.8833 91.4056 11.71 90.8989 11.71C90.3989 11.71 89.9789 11.8833 89.6389 12.23C89.2989 12.57 89.1289 12.9933 89.1289 13.5C89.1289 14.0067 89.2989 14.4333 89.6389 14.78C89.9789 15.12 90.3989 15.29 90.8989 15.29ZM101.587 15.37C101.074 15.8767 100.45 16.13 99.717 16.13C98.9837 16.13 98.3604 15.8767 97.847 15.37C97.3404 14.8633 97.087 14.24 97.087 13.5C97.087 12.76 97.3404 12.1367 97.847 11.63C98.3604 11.1233 98.9837 10.87 99.717 10.87C100.45 10.87 101.074 11.1233 101.587 11.63C102.1 12.1367 102.357 12.76 102.357 13.5C102.357 14.24 102.1 14.8633 101.587 15.37ZM99.717 15.28C100.217 15.28 100.637 15.11 100.977 14.77C101.317 14.43 101.487 14.0067 101.487 13.5C101.487 12.9933 101.317 12.57 100.977 12.23C100.637 11.89 100.217 11.72 99.717 11.72C99.2237 11.72 98.807 11.89 98.467 12.23C98.127 12.57 97.957 12.9933 97.957 13.5C97.957 14.0067 98.127 14.43 98.467 14.77C98.807 15.11 99.2237 15.28 99.717 15.28ZM105.873 10.87C106.459 10.87 106.929 11.0567 107.283 11.43C107.636 11.7967 107.813 12.2967 107.813 12.93V16H106.943V12.98C106.943 12.5733 106.833 12.26 106.613 12.04C106.393 11.8133 106.089 11.7 105.703 11.7C105.269 11.7 104.919 11.8367 104.653 12.11C104.386 12.3767 104.253 12.79 104.253 13.35V16H103.383V11H104.253V11.72C104.606 11.1533 105.146 10.87 105.873 10.87ZM114.247 11.84H112.917V14.55C112.917 14.7967 112.964 14.9733 113.057 15.08C113.157 15.18 113.307 15.2333 113.507 15.24C113.707 15.24 113.954 15.2333 114.247 15.22V16C113.487 16.1 112.931 16.04 112.577 15.82C112.224 15.5933 112.047 15.17 112.047 14.55V11.84H111.057V11H112.047V9.86L112.917 9.6V11H114.247V11.84ZM117.767 10.87C118.354 10.87 118.824 11.0567 119.177 11.43C119.531 11.7967 119.707 12.2967 119.707 12.93V16H118.837V12.98C118.837 12.5733 118.727 12.26 118.507 12.04C118.287 11.8133 117.984 11.7 117.597 11.7C117.164 11.7 116.814 11.8367 116.547 12.11C116.281 12.3767 116.147 12.79 116.147 13.35V16H115.277V9H116.147V11.72C116.501 11.1533 117.041 10.87 117.767 10.87ZM121.532 13.9C121.618 14.3467 121.822 14.6933 122.142 14.94C122.468 15.1867 122.868 15.31 123.342 15.31C124.002 15.31 124.482 15.0667 124.782 14.58L125.522 15C125.035 15.7533 124.302 16.13 123.322 16.13C122.528 16.13 121.882 15.8833 121.382 15.39C120.888 14.89 120.642 14.26 120.642 13.5C120.642 12.7467 120.885 12.12 121.372 11.62C121.858 11.12 122.488 10.87 123.262 10.87C123.995 10.87 124.592 11.13 125.052 11.65C125.518 12.1633 125.752 12.7833 125.752 13.51C125.752 13.6367 125.742 13.7667 125.722 13.9H121.532ZM123.262 11.69C122.795 11.69 122.408 11.8233 122.102 12.09C121.795 12.35 121.605 12.7 121.532 13.14H124.872C124.798 12.6667 124.612 12.3067 124.312 12.06C124.012 11.8133 123.662 11.69 123.262 11.69Z" fill="white"/>
<path d="M59.624 37L58.448 33.616H51.296L50.12 37H47.12L53.216 20.2H56.528L62.6 37H59.624ZM52.208 31.024H57.536L54.872 23.44L52.208 31.024ZM71.0306 24.688C72.6786 24.688 74.0866 25.304 75.2546 26.536C76.4226 27.752 77.0066 29.24 77.0066 31C77.0066 32.776 76.4226 34.272 75.2546 35.488C74.0866 36.704 72.6786 37.312 71.0306 37.312C69.2066 37.312 67.8066 36.64 66.8306 35.296V41.8H64.2386V25H66.8306V26.728C67.8066 25.368 69.2066 24.688 71.0306 24.688ZM67.9106 33.76C68.6306 34.48 69.5346 34.84 70.6226 34.84C71.7106 34.84 72.6146 34.48 73.3346 33.76C74.0546 33.024 74.4146 32.104 74.4146 31C74.4146 29.896 74.0546 28.984 73.3346 28.264C72.6146 27.528 71.7106 27.16 70.6226 27.16C69.5346 27.16 68.6306 27.528 67.9106 28.264C67.1906 28.984 66.8306 29.896 66.8306 31C66.8306 32.104 67.1906 33.024 67.9106 33.76ZM86.1478 24.688C87.7958 24.688 89.2038 25.304 90.3718 26.536C91.5398 27.752 92.1238 29.24 92.1238 31C92.1238 32.776 91.5398 34.272 90.3718 35.488C89.2038 36.704 87.7958 37.312 86.1478 37.312C84.3238 37.312 82.9238 36.64 81.9478 35.296V41.8H79.3558V25H81.9478V26.728C82.9238 25.368 84.3238 24.688 86.1478 24.688ZM83.0278 33.76C83.7478 34.48 84.6518 34.84 85.7398 34.84C86.8278 34.84 87.7318 34.48 88.4518 33.76C89.1718 33.024 89.5318 32.104 89.5318 31C89.5318 29.896 89.1718 28.984 88.4518 28.264C87.7318 27.528 86.8278 27.16 85.7398 27.16C84.6518 27.16 83.7478 27.528 83.0278 28.264C82.3078 28.984 81.9478 29.896 81.9478 31C81.9478 32.104 82.3078 33.024 83.0278 33.76ZM102.801 28.312C102.801 28.712 103.017 29.032 103.449 29.272C103.897 29.496 104.433 29.696 105.057 29.872C105.697 30.032 106.337 30.224 106.977 30.448C107.617 30.672 108.153 31.056 108.585 31.6C109.033 32.128 109.257 32.8 109.257 33.616C109.257 34.768 108.809 35.672 107.913 36.328C107.033 36.984 105.921 37.312 104.577 37.312C103.393 37.312 102.377 37.064 101.529 36.568C100.681 36.072 100.065 35.384 99.6809 34.504L101.913 33.208C102.329 34.36 103.217 34.936 104.577 34.936C105.937 34.936 106.617 34.488 106.617 33.592C106.617 33.208 106.393 32.896 105.945 32.656C105.513 32.416 104.977 32.216 104.337 32.056C103.713 31.88 103.081 31.68 102.441 31.456C101.801 31.232 101.257 30.864 100.809 30.352C100.377 29.824 100.161 29.16 100.161 28.36C100.161 27.256 100.577 26.368 101.409 25.696C102.257 25.024 103.305 24.688 104.553 24.688C105.545 24.688 106.425 24.912 107.193 25.36C107.977 25.792 108.577 26.4 108.993 27.184L106.809 28.408C106.393 27.496 105.641 27.04 104.553 27.04C104.057 27.04 103.641 27.152 103.305 27.376C102.969 27.584 102.801 27.896 102.801 28.312ZM117.763 27.496H114.787V33.256C114.787 33.752 114.899 34.112 115.123 34.336C115.347 34.544 115.675 34.664 116.107 34.696C116.555 34.712 117.107 34.704 117.763 34.672V37C115.779 37.24 114.355 37.072 113.491 36.496C112.627 35.904 112.195 34.824 112.195 33.256V27.496H109.987V25H112.195V22.408L114.787 21.64V25H117.763V27.496ZM125.285 37.312C123.525 37.312 122.029 36.704 120.797 35.488C119.565 34.272 118.949 32.776 118.949 31C118.949 29.224 119.565 27.728 120.797 26.512C122.029 25.296 123.525 24.688 125.285 24.688C127.061 24.688 128.557 25.296 129.773 26.512C131.005 27.728 131.621 29.224 131.621 31C131.621 32.776 131.005 34.272 129.773 35.488C128.557 36.704 127.061 37.312 125.285 37.312ZM122.621 33.712C123.341 34.432 124.229 34.792 125.285 34.792C126.341 34.792 127.229 34.432 127.949 33.712C128.669 32.992 129.029 32.088 129.029 31C129.029 29.912 128.669 29.008 127.949 28.288C127.229 27.568 126.341 27.208 125.285 27.208C124.229 27.208 123.341 27.568 122.621 28.288C121.901 29.008 121.541 29.912 121.541 31C121.541 32.088 121.901 32.992 122.621 33.712ZM136.557 27.016C137.213 25.528 138.445 24.784 140.253 24.784V27.592C139.261 27.528 138.397 27.768 137.661 28.312C136.925 28.84 136.557 29.72 136.557 30.952V37H133.965V25H136.557V27.016ZM143.646 32.104C143.838 33.016 144.278 33.72 144.966 34.216C145.654 34.696 146.494 34.936 147.486 34.936C148.862 34.936 149.894 34.44 150.582 33.448L152.718 34.696C151.534 36.44 149.782 37.312 147.462 37.312C145.51 37.312 143.934 36.72 142.734 35.536C141.534 34.336 140.934 32.824 140.934 31C140.934 29.208 141.526 27.712 142.71 26.512C143.894 25.296 145.414 24.688 147.27 24.688C149.03 24.688 150.47 25.304 151.59 26.536C152.726 27.768 153.294 29.264 153.294 31.024C153.294 31.296 153.262 31.656 153.198 32.104H143.646ZM143.622 29.992H150.678C150.502 29.016 150.094 28.28 149.454 27.784C148.83 27.288 148.094 27.04 147.246 27.04C146.286 27.04 145.486 27.304 144.846 27.832C144.206 28.36 143.798 29.08 143.622 29.992Z" fill="white"/>
</svg>
