<svg width="62" height="62" viewBox="0 0 62 62" fill="none" xmlns="http://www.w3.org/2000/svg">
<path d="M27.125 19.374V15.499H3.875C1.73987 15.499 0 17.2389 0 19.374V27.124H27.9426C27.404 24.7564 27.125 22.2067 27.125 19.374Z" fill="#F5F5F5"/>
<path d="M61.8411 34.874C59.1984 38.9466 55.1684 42.4109 49.3946 45.7279C48.5072 46.2355 47.5075 46.499 46.5 46.499C45.4925 46.499 44.4927 46.2355 43.617 45.7356C37.8432 42.4109 33.8133 38.9428 31.1666 34.874H0V54.249C0 56.388 1.73987 58.124 3.875 58.124H58.125C60.264 58.124 62 56.388 62 54.249V34.874H61.8411ZM17.4375 46.499H9.6875C8.618 46.499 7.75 45.631 7.75 44.5615C7.75 43.492 8.618 42.624 9.6875 42.624H17.4375C18.507 42.624 19.375 43.492 19.375 44.5615C19.375 45.631 18.507 46.499 17.4375 46.499Z" fill="#F5F5F5"/>
<path d="M60.8259 9.84541L47.2634 4.03291C46.7712 3.82366 46.2249 3.82366 45.7327 4.03291L32.1703 9.84541C31.4611 10.1477 31 10.849 31 11.624V19.374C31 30.0342 34.9409 36.2652 45.5351 42.3683C45.8335 42.5388 46.1667 42.624 46.5 42.624C46.8333 42.624 47.1665 42.5388 47.4649 42.3683C58.0591 36.2807 62 30.0497 62 19.374V11.624C62 10.849 61.5389 10.1477 60.8259 9.84541ZM53.8276 18.6494L46.0776 28.3369C45.7056 28.7942 45.1476 29.0615 44.5625 29.0615C44.5354 29.0615 44.5044 29.0615 44.4811 29.0615C43.865 29.0344 43.2954 28.7167 42.9505 28.2013L39.0755 22.3888C38.4826 21.4975 38.7229 20.2963 39.6141 19.7034C40.4976 19.1144 41.7028 19.3469 42.2995 20.242L44.7059 23.8497L50.7974 16.2314C51.4678 15.3983 52.6884 15.2665 53.5215 15.9292C54.3585 16.5918 54.4902 17.8124 53.8276 18.6494Z" fill="#F5F5F5"/>
</svg>
