<svg width="62" height="62" viewBox="0 0 62 62" fill="none" xmlns="http://www.w3.org/2000/svg">
<path d="M17.0163 10.5334C17.0163 6.14423 20.5746 2.58594 24.9643 2.58594C29.3535 2.58594 32.9121 6.14423 32.9121 10.5334C32.9121 14.9226 29.3535 18.4807 24.9643 18.4807C20.5746 18.4808 17.0163 14.9226 17.0163 10.5334ZM28.7838 23.8953C28.8635 22.1647 29.4592 20.563 30.4177 19.2389C29.745 19.098 29.0498 19.0232 28.3364 19.0232H21.5932C20.8819 19.0232 20.1876 19.0974 19.5184 19.2365C20.5384 20.6513 21.1485 22.3791 21.1584 24.2494C22.3983 23.5675 23.8209 23.1793 25.3319 23.1793C26.5576 23.1793 27.7245 23.4346 28.7838 23.8953ZM30.1291 24.6087C32.4376 26.0563 34.0565 28.5049 34.3525 31.3484C35.2932 31.7881 36.3385 32.0417 37.4459 32.0417C41.4902 32.0417 44.7682 28.7633 44.7682 24.7191C44.7682 20.6745 41.4902 17.3968 37.4459 17.3968C33.4386 17.3969 30.1899 20.6164 30.1291 24.6087ZM25.3318 39.6019C29.3754 39.6019 32.6537 36.3226 32.6537 32.2796C32.6537 28.236 29.3754 24.9573 25.3318 24.9573C21.2879 24.9573 18.0082 28.2359 18.0082 32.2796C18.0083 36.3226 21.2879 39.6019 25.3318 39.6019ZM28.4379 40.1003H22.2251C17.0556 40.1003 12.849 44.3066 12.849 49.4768V57.0758L12.8688 57.1948L13.3918 57.3574C18.3254 58.8983 22.6117 59.4137 26.1399 59.4137C33.0297 59.4137 37.0248 57.449 37.2709 57.3233L37.7602 57.0757H37.8122V49.4767C37.8123 44.3066 33.6081 40.1003 28.4379 40.1003ZM40.5536 32.5414H34.3875C34.3205 35.0086 33.2676 37.2304 31.6023 38.8274C36.1976 40.1939 39.5597 44.4549 39.5597 49.4884V51.8298C45.6466 51.6057 49.155 49.8815 49.386 49.7652L49.8755 49.5163H49.9274V41.916C49.9281 36.7472 45.7218 32.5414 40.5536 32.5414ZM42.2018 17.2407C44.5104 18.6886 46.1291 21.1372 46.4245 23.9808C47.3653 24.4204 48.4105 24.6736 49.5179 24.6736C53.563 24.6736 56.8408 21.3956 56.8408 17.352C56.8408 13.3073 53.5629 10.0297 49.5179 10.0297C45.5112 10.0292 42.2628 13.2495 42.2018 17.2407ZM52.6249 25.1734H46.46C46.3931 27.6406 45.3403 29.8624 43.675 31.4592C48.2702 32.8253 51.6323 37.0869 51.6323 42.1203V44.4618C57.7186 44.2381 61.2276 42.5142 61.4587 42.3971L61.9475 42.149H62.0001V34.5477C62.0008 29.3794 57.7945 25.1734 52.6249 25.1734ZM12.4836 32.0418C13.9161 32.0418 15.2482 31.6234 16.3778 30.911C16.737 28.57 17.9921 26.5239 19.7843 25.1311C19.7918 24.9937 19.8044 24.858 19.8044 24.7192C19.8044 20.6746 16.5255 17.3969 12.4836 17.3969C8.4383 17.3969 5.16071 20.6745 5.16071 24.7192C5.16071 28.7641 8.43819 32.0418 12.4836 32.0418ZM19.0596 38.8274C17.4021 37.238 16.3528 35.0284 16.2755 32.5756C16.0476 32.5586 15.8212 32.5414 15.5882 32.5414H9.37616C4.20597 32.5414 0 36.7472 0 41.9167V49.5163L0.019199 49.6347L0.542892 49.798C4.49996 51.0354 8.03292 51.6041 11.1014 51.7818V49.4876C11.102 44.4549 14.4633 40.1932 19.0596 38.8274Z" fill="black"/>
</svg>
