<svg width="67" height="62" viewBox="0 0 67 62" fill="none" xmlns="http://www.w3.org/2000/svg">
<path d="M54.587 30.5242C53.1776 30.5254 51.8262 31.0852 50.8288 32.0809C49.8314 33.0767 49.2693 34.4271 49.2656 35.8364V40.8862H59.9083V35.8364C59.9046 34.4271 59.3425 33.0767 58.3451 32.0809C57.3477 31.0852 55.9963 30.5254 54.587 30.5242Z" fill="#F5F5F5"/>
<path d="M44.9741 45.3492V59.5967C44.9741 60.2341 45.2273 60.8454 45.678 61.296C46.1287 61.7467 46.7399 61.9999 47.3773 61.9999H61.6248C62.2622 61.9999 62.8734 61.7467 63.3241 61.296C63.7748 60.8454 64.028 60.2341 64.028 59.5967V45.3492C64.028 44.7119 63.7748 44.1006 63.3241 43.6499C62.8734 43.1992 62.2622 42.946 61.6248 42.946H47.3773C46.7399 42.946 46.1287 43.1992 45.678 43.6499C45.2273 44.1006 44.9741 44.7119 44.9741 45.3492ZM50.9632 55.6115C51.4285 55.5105 51.8474 55.2588 52.155 54.8955C52.4626 54.5322 52.6418 54.0775 52.6647 53.602C52.6703 53.4717 52.6741 53.2454 52.677 53.2454H51.6586C51.3854 53.2454 51.1235 53.1369 50.9303 52.9438C50.7372 52.7506 50.6287 52.4887 50.6287 52.2155C50.6287 51.9423 50.7372 51.6804 50.9303 51.4872C51.1235 51.2941 51.3854 51.1856 51.6586 51.1856H52.6027C52.5692 50.8422 52.5294 50.4401 52.474 50.0888L52.4616 49.9562C52.3556 49.3075 52.4435 48.642 52.7142 48.043C52.9849 47.4441 53.4263 46.9384 53.9832 46.5893C54.5022 46.261 55.1039 46.0869 55.7181 46.0874C56.1568 46.0882 56.5911 46.1755 56.9961 46.3444C57.4011 46.5132 57.7688 46.7602 58.0782 47.0712C58.3877 47.3823 58.6328 47.7512 58.7995 48.1571C58.9663 48.5629 59.0514 48.9976 59.05 49.4364V49.8889C59.05 50.162 58.9414 50.424 58.7483 50.6171C58.5551 50.8103 58.2932 50.9188 58.02 50.9188C57.7469 50.9188 57.4849 50.8103 57.2917 50.6171C57.0986 50.424 56.9901 50.162 56.9901 49.8889V49.4364C56.9918 49.2682 56.9601 49.1014 56.897 48.9456C56.8338 48.7897 56.7404 48.6479 56.6221 48.5284C56.5039 48.4088 56.3631 48.3139 56.2079 48.2491C56.0527 48.1843 55.8863 48.1509 55.7181 48.1508C55.4767 48.1521 55.2405 48.2203 55.0356 48.3479C54.8251 48.4868 54.6602 48.6846 54.5613 48.9165C54.4624 49.1485 54.4339 49.4045 54.4794 49.6525L54.5002 49.768C54.5721 50.2248 54.6324 50.6699 54.6719 51.1849H55.4654C55.7386 51.1849 56.0005 51.2934 56.1937 51.4865C56.3868 51.6797 56.4954 51.9417 56.4954 52.2148C56.4954 52.488 56.3868 52.7499 56.1937 52.9431C56.0005 53.1362 55.7386 53.2447 55.4654 53.2447H54.7383C54.735 53.4164 54.73 53.5316 54.723 53.6921C54.6869 54.4899 54.4188 55.2599 53.9516 55.9077C54.1582 56.0063 54.3572 56.1202 54.5469 56.2484C54.9117 56.4946 55.3353 56.6396 55.7745 56.6685C56.2136 56.6974 56.6526 56.6093 57.0466 56.413L57.5641 56.1555C57.6853 56.0933 57.8176 56.0557 57.9535 56.0449C58.0893 56.0342 58.2259 56.0505 58.3554 56.0929C58.4849 56.1353 58.6047 56.203 58.7078 56.2921C58.811 56.3811 58.8954 56.4897 58.9563 56.6117C59.0171 56.7336 59.0532 56.8663 59.0624 57.0023C59.0715 57.1382 59.0536 57.2747 59.0097 57.4037C58.9658 57.5326 58.8967 57.6516 58.8065 57.7537C58.7162 57.8558 58.6066 57.939 58.484 57.9984L57.9666 58.2559C57.2459 58.6151 56.4426 58.7765 55.6391 58.7236C54.8355 58.6708 54.0603 58.4055 53.3928 57.955C53.1239 57.7721 52.8215 57.6442 52.503 57.5787C52.1845 57.5132 51.8561 57.5113 51.5369 57.5732L51.5223 57.5756C51.4866 57.5847 51.4519 57.5973 51.4159 57.6055C51.2843 57.6367 51.1478 57.6414 51.0144 57.6193C50.881 57.5972 50.7533 57.5489 50.6388 57.477C50.5242 57.4051 50.4251 57.3111 50.3472 57.2006C50.2694 57.09 50.2142 56.9651 50.1851 56.8331C50.1556 56.7017 50.1523 56.5659 50.1755 56.4333C50.1987 56.3007 50.2478 56.174 50.3202 56.0605C50.3925 55.947 50.4865 55.8489 50.5969 55.7718C50.7072 55.6948 50.8317 55.6403 50.9632 55.6115Z" fill="#F5F5F5"/>
<path d="M1.02582 34.8784H4.97529C5.17117 34.8793 5.36274 34.9359 5.52772 35.0415C5.69269 35.1471 5.8243 35.2974 5.90721 35.4749C6.76872 37.2816 7.89206 38.9514 9.24095 40.4302C12.2394 43.7638 13.8913 48.0931 13.8757 52.5767C13.8764 53.0731 14.0742 53.5489 14.4255 53.8997C14.7768 54.2504 15.253 54.4473 15.7495 54.4472H19.7896C20.288 54.4436 20.7648 54.2431 21.116 53.8894C21.4672 53.5357 21.6643 53.0574 21.6642 52.559C21.6649 51.5144 22.0792 50.5127 22.8166 49.7728C23.5539 49.0329 24.5542 48.6151 25.5988 48.6109H33.1395C34.184 48.6152 35.1843 49.033 35.9216 49.7728C36.659 50.5127 37.0733 51.5144 37.074 52.559C37.074 53.0575 37.2711 53.5357 37.6223 53.8894C37.9735 54.2432 38.4504 54.4437 38.9489 54.4472H42.9141V45.2737C42.921 44.1222 43.3703 43.0174 44.1691 42.1879C44.9679 41.3585 46.0551 40.8679 47.2055 40.8177V35.8365C47.2078 34.4742 47.5869 33.1391 48.3009 31.9788C49.0148 30.8185 50.0359 29.8784 51.251 29.2624C52.4661 28.6464 53.8279 28.3785 55.1858 28.4885C56.5437 28.5984 57.8447 29.0818 58.9449 29.8852C59.0035 29.2501 59.0443 28.6108 59.0443 27.9724C59.0443 27.797 59.0466 27.5854 59.0423 27.4108C59.1972 27.4797 59.3668 27.5092 59.536 27.4966H59.7879C60.6694 27.4996 61.5429 27.3288 62.3583 26.994C63.1737 26.6591 63.9151 26.1668 64.54 25.5451C65.165 24.9235 65.6613 24.1848 66.0005 23.3711C66.3397 22.5575 66.5152 21.685 66.5169 20.8036C66.5169 20.5304 66.4084 20.2684 66.2152 20.0753C66.0221 19.8821 65.7601 19.7736 65.4869 19.7736C65.2138 19.7736 64.9518 19.8821 64.7587 20.0753C64.5655 20.2684 64.457 20.5304 64.457 20.8036C64.4557 21.4147 64.3337 22.0195 64.0982 22.5834C63.8626 23.1473 63.5181 23.6591 63.0843 24.0896C62.6506 24.5201 62.1361 24.8607 61.5704 25.0919C61.0048 25.3232 60.399 25.4406 59.7879 25.4373H59.5368C59.3153 25.4501 59.1035 25.5323 58.9312 25.6721C57.6673 14.2015 46.9069 5.23123 33.8618 5.23123C32.5496 5.23533 31.2389 5.32265 29.9377 5.49266C30.6653 7.13006 31.0407 8.90208 31.0396 10.6939C31.04 10.967 30.9319 11.2292 30.7391 11.4226C30.5463 11.6161 30.2845 11.725 30.0113 11.7254C29.7381 11.7259 29.476 11.6178 29.2825 11.4249C29.0891 11.2321 28.9802 10.9703 28.9797 10.6971C28.9764 8.08118 28.0242 5.55527 26.2999 3.58809C24.5755 1.62091 22.1961 0.346027 19.6032 0C20.2256 2.2401 20.4081 4.57957 20.1406 6.88909C20.1193 7.08317 20.0425 7.267 19.9194 7.41857C19.7963 7.57015 19.6322 7.68305 19.4466 7.74377C14.3843 9.64223 10.0773 13.1366 7.17627 17.699L5.71118 20.0024C5.61706 20.1465 5.48768 20.264 5.33533 20.344C5.18297 20.4239 5.01271 20.4636 4.84071 20.4592H1.02582C0.762963 20.4664 0.512226 20.5713 0.322551 20.7534C0.132875 20.9356 0.0178756 21.1818 0 21.4442V33.9514C0 34.469 0.507416 34.8784 1.02582 34.8784ZM14.1042 17.1634C14.3773 17.1634 14.6393 17.2719 14.8324 17.4651C15.0256 17.6582 15.1341 17.9202 15.1341 18.1934C15.1341 18.8084 15.3784 19.3982 15.8133 19.8331C16.2482 20.2679 16.838 20.5123 17.453 20.5123C18.068 20.5123 18.6578 20.2679 19.0927 19.8331C19.5276 19.3982 19.7719 18.8084 19.7719 18.1934C19.7719 17.9202 19.8804 17.6582 20.0736 17.4651C20.2667 17.2719 20.5287 17.1634 20.8018 17.1634C21.075 17.1634 21.337 17.2719 21.5301 17.4651C21.7233 17.6582 21.8318 17.9202 21.8318 18.1934C21.8318 19.3547 21.3705 20.4684 20.5493 21.2896C19.7281 22.1108 18.6143 22.5721 17.453 22.5721C16.2917 22.5721 15.1779 22.1108 14.3567 21.2896C13.5356 20.4684 13.0742 19.3547 13.0742 18.1934C13.0742 17.9202 13.1827 17.6582 13.3759 17.4651C13.569 17.2719 13.831 17.1634 14.1042 17.1634Z" fill="#F5F5F5"/>
</svg>
