<svg width="50" height="50" viewBox="0 0 50 50" fill="none" xmlns="http://www.w3.org/2000/svg">
<path d="M0 20C0 8.9543 8.95431 0 20 0H30C41.0457 0 50 8.95431 50 20V50H20C8.9543 50 0 41.0457 0 30V20Z" fill="#FF7A00"/>
<path d="M30 15H20C17.2386 15 15 17.2386 15 20V30C15 32.7614 17.2386 35 20 35H30C32.7614 35 35 32.7614 35 30V20C35 17.2386 32.7614 15 30 15Z" stroke="#FAFAF9" stroke-width="2" stroke-linecap="round" stroke-linejoin="round"/>
<path d="M28.9997 24.3698C29.1231 25.2021 28.981 26.052 28.5935 26.7988C28.206 27.5456 27.5929 28.1512 26.8413 28.5295C26.0898 28.9077 25.2382 29.0394 24.4075 28.9057C23.5768 28.7721 22.8095 28.3799 22.2145 27.785C21.6196 27.1901 21.2274 26.4227 21.0938 25.592C20.9601 24.7614 21.0918 23.9097 21.47 23.1582C21.8483 22.4067 22.4539 21.7936 23.2007 21.4061C23.9475 21.0186 24.7975 20.8764 25.6297 20.9998C26.4786 21.1257 27.2646 21.5213 27.8714 22.1281C28.4782 22.735 28.8738 23.5209 28.9997 24.3698Z" stroke="#FAFAF9" stroke-width="2" stroke-linecap="round" stroke-linejoin="round"/>
<path d="M30.5 19.5H30.51" stroke="#FAFAF9" stroke-width="2" stroke-linecap="round" stroke-linejoin="round"/>
</svg>
