<svg width="51" height="50" viewBox="0 0 51 50" fill="none" xmlns="http://www.w3.org/2000/svg">
<path fill-rule="evenodd" clip-rule="evenodd" d="M4.07352 0C1.82378 0 0 1.82377 0 4.07352V35.2064C0 36.6995 0.803305 38.0049 2.0013 38.7142C2.65179 40.099 4.05909 41.0578 5.69035 41.0578H44.4205C46.6703 41.0578 48.4941 39.2341 48.4941 36.9843V5.85148C48.4941 4.35838 47.6908 3.05292 46.4928 2.34368C45.8423 0.958848 44.435 0 42.8037 0H4.07352ZM46.4928 2.34368C45.8857 1.98426 45.1772 1.77795 44.4205 1.77795H5.69034C3.4406 1.77795 1.61682 3.60173 1.61682 5.85147V36.9843C1.61682 37.6028 1.75467 38.1891 2.0013 38.7142C2.60841 39.0736 3.31688 39.2799 4.07353 39.2799H42.8037C45.0535 39.2799 46.8772 37.4561 46.8772 35.2064V4.07352C46.8772 3.45503 46.7394 2.86874 46.4928 2.34368Z" fill="#F5F5F5"/>
<path d="M6.92419 3.11031C5.36905 3.49492 3.62997 5.10023 2.96109 6.77242L2.57648 7.72557L2.52632 22.3907C2.47615 38.6779 2.45943 38.4271 3.56308 40.1327C4.13162 41.0357 5.00117 41.8217 5.92087 42.3066C7.04125 42.8751 8.27867 42.9253 20.5024 42.9253H32.5924V46.5205C32.5924 49.9151 32.6091 50.1158 32.8934 49.9653C33.0439 49.8649 34.1643 48.9619 35.3515 47.9252C36.5555 46.9051 38.3615 45.35 39.3982 44.4972L41.2544 42.9253H43.1607C46.4047 42.9253 47.893 42.4738 49.2642 41.0525C49.6488 40.6678 50.1839 39.8819 50.4347 39.3301L50.903 38.3268V22.859V7.39114L50.3511 6.27076C49.7491 5.03334 48.7124 3.99658 47.475 3.41131L46.7225 3.04343L27.0742 3.00998C16.2718 3.00998 7.20847 3.04343 6.92419 3.11031ZM23.596 12.8258L23.6462 18.344L26.9906 14.6317C30.753 10.4513 31.8399 9.24727 32.9268 8.09346L33.6793 7.2908L35.6525 7.34097L37.609 7.39114L36.0706 9.14694C34.1308 11.3542 26.9906 19.4477 26.4554 20.0329L26.0541 20.4677L28.8467 24.297C33.9636 31.3035 38.211 37.1562 38.3448 37.3569C38.4451 37.5241 38.0103 37.5743 36.3883 37.5743H34.3148L31.773 34.1964C30.3684 32.3236 27.9604 29.1297 26.422 27.0896L23.6462 23.3773L23.596 30.4674L23.5625 37.5743H21.8904H20.2182V32.3069V27.0394H17.6262H15.0343V25.2836V23.5278H17.6262H20.2182V21.772V20.0162H17.6262H15.0343V18.1768V16.3374H17.6262H20.2182V11.8225V7.30753H21.8904H23.5625L23.596 12.8258Z" fill="#F5F5F5"/>
</svg>
