<svg width="51" height="50" viewBox="0 0 51 50" fill="none" xmlns="http://www.w3.org/2000/svg">
<path fill-rule="evenodd" clip-rule="evenodd" d="M5.39851 0C2.41699 0 0 2.41699 0 5.39851V32.732C0 35.6138 2.25804 37.9682 5.10135 38.1225C5.80708 38.4609 6.59775 38.6504 7.43271 38.6504H41.3888C44.3704 38.6504 46.7873 36.2334 46.7873 33.2519V7.43272C46.7873 7.16988 46.7686 6.91142 46.7323 6.65862V5.39851C46.7323 2.41699 44.3153 0 41.3338 0H5.39851ZM46.7323 6.65862C46.3568 4.04384 44.1075 2.03421 41.3888 2.03421H7.43271C4.4512 2.03421 2.0342 4.45121 2.0342 7.43272V33.2519C2.0342 35.3985 3.28702 37.2524 5.10135 38.1225C5.19972 38.1278 5.2988 38.1305 5.3985 38.1305H41.3338C44.3153 38.1305 46.7323 35.7135 46.7323 32.732V6.65862Z" fill="#FF7A00"/>
<path d="M7.70439 3.99261C6.17851 4.36998 4.47215 5.94508 3.81586 7.58582L3.43849 8.52103L3.38927 22.9102C3.34005 38.891 3.32364 38.6448 4.40652 40.3184C4.96437 41.2044 5.81755 41.9755 6.71995 42.4513C7.81924 43.0092 9.03338 43.0584 21.0271 43.0584H32.8896V46.586C32.8896 49.9167 32.906 50.1135 33.1849 49.9659C33.3326 49.8674 34.4319 48.9814 35.5968 47.9642C36.7781 46.9633 38.5501 45.4375 39.5674 44.6007L41.3886 43.0584H43.259C46.442 43.0584 47.9023 42.6154 49.2477 41.2208C49.625 40.8434 50.1501 40.0723 50.3962 39.5308L50.8556 38.5464V23.3696V8.19289L50.3142 7.09359C49.7235 5.87946 48.7062 4.8622 47.4921 4.28794L46.7538 3.92699L27.4752 3.89417C16.8761 3.89417 7.98331 3.92699 7.70439 3.99261ZM24.0625 13.5253L24.1117 18.9397L27.3932 15.2972C31.0848 11.1954 32.1513 10.0141 33.2177 8.88199L33.9561 8.09444L35.8921 8.14366L37.8118 8.19289L36.3023 9.91565C34.3991 12.0814 27.3932 20.0226 26.8681 20.5968L26.4743 21.0234L29.2144 24.7807C34.235 31.6553 38.4025 37.3979 38.5337 37.5948C38.6322 37.7588 38.2056 37.8081 36.6141 37.8081H34.5796L32.0856 34.4938C30.7074 32.6562 28.3448 29.5224 26.8353 27.5207L24.1117 23.8783L24.0625 30.835L24.0297 37.8081H22.3889H20.7482V32.6398V27.4715H18.2051H15.6619V25.7487V24.0259H18.2051H20.7482V22.3032V20.5804H18.2051H15.6619V18.7756V16.9708H18.2051H20.7482V12.5408V8.11085H22.3889H24.0297L24.0625 13.5253Z" fill="#001E89"/>
</svg>
