<svg width="28" height="46" viewBox="0 0 28 46" fill="none" xmlns="http://www.w3.org/2000/svg">
<path d="M14.0002 45.2222C10.3167 45.2222 6.78396 43.7589 4.17929 41.1543C1.57462 38.5496 0.111328 35.0169 0.111328 31.3333V14.6667C0.111328 10.9831 1.57462 7.4504 4.17929 4.84573C6.78396 2.24106 10.3167 0.777771 14.0002 0.777771C17.6838 0.777771 21.2165 2.24106 23.8211 4.84573C26.4258 7.4504 27.8891 10.9831 27.8891 14.6667V31.3333C27.8891 33.1572 27.5299 34.9633 26.8319 36.6484C26.1339 38.3335 25.1108 39.8646 23.8211 41.1543C22.5314 42.444 21.0003 43.467 19.3153 44.165C17.6302 44.863 15.8241 45.2222 14.0002 45.2222ZM14.0002 3.55555C11.0534 3.55555 8.22721 4.72618 6.14347 6.80992C4.05974 8.89365 2.88911 11.7198 2.88911 14.6667V31.3333C2.88911 34.2802 4.05974 37.1063 6.14347 39.1901C8.22721 41.2738 11.0534 42.4444 14.0002 42.4444C16.9471 42.4444 19.7732 41.2738 21.857 39.1901C23.9407 37.1063 25.1113 34.2802 25.1113 31.3333V14.6667C25.1113 11.7198 23.9407 8.89365 21.857 6.80992C19.7732 4.72618 16.9471 3.55555 14.0002 3.55555Z" fill="#FF7A00"/>
<path d="M14.0002 18.8333C13.6319 18.8333 13.2786 18.687 13.0181 18.4265C12.7577 18.1661 12.6113 17.8128 12.6113 17.4444V11.8889C12.6113 11.5205 12.7577 11.1673 13.0181 10.9068C13.2786 10.6463 13.6319 10.5 14.0002 10.5C14.3686 10.5 14.7218 10.6463 14.9823 10.9068C15.2428 11.1673 15.3891 11.5205 15.3891 11.8889V17.4444C15.3891 17.8128 15.2428 18.1661 14.9823 18.4265C14.7218 18.687 14.3686 18.8333 14.0002 18.8333Z" fill="#FF7A00"/>
</svg>
