<svg width="24" height="22" viewBox="0 0 24 22" fill="none" xmlns="http://www.w3.org/2000/svg">
<g clip-path="url(#clip0)">
<path d="M21.9999 15.4369V18.1538C22.0011 18.4061 21.944 18.6557 21.8324 18.8868C21.7209 19.1179 21.5572 19.3254 21.352 19.4959C21.1468 19.6664 20.9045 19.7962 20.6407 19.877C20.3769 19.9579 20.0973 19.9879 19.8199 19.9652C16.7428 19.6623 13.7869 18.71 11.1899 17.1848C8.77376 15.7943 6.72527 13.9391 5.18993 11.7508C3.49991 9.38814 2.44818 6.69814 2.11993 3.89874C2.09494 3.6483 2.12781 3.39589 2.21643 3.15757C2.30506 2.91926 2.4475 2.70027 2.6347 2.51455C2.82189 2.32883 3.04974 2.18044 3.30372 2.07884C3.55771 1.97724 3.83227 1.92464 4.10993 1.9244H7.10993C7.59524 1.92008 8.06572 2.07572 8.43369 2.36232C8.80166 2.64892 9.04201 3.04692 9.10993 3.48214C9.23656 4.35163 9.47138 5.20536 9.80993 6.02705C9.94448 6.3512 9.9736 6.7035 9.89384 7.04218C9.81408 7.38087 9.6288 7.69175 9.35993 7.93799L8.08993 9.08818C9.51349 11.3555 11.5864 13.2329 14.0899 14.5221L15.3599 13.372C15.6318 13.1285 15.9751 12.9606 16.3491 12.8884C16.723 12.8162 17.112 12.8426 17.4699 12.9644C18.3772 13.271 19.3199 13.4837 20.2799 13.5984C20.7657 13.6604 21.2093 13.882 21.5265 14.221C21.8436 14.56 22.0121 14.9927 21.9999 15.4369Z" stroke="#FF7A00" stroke-width="2" stroke-linecap="round" stroke-linejoin="round"/>
</g>
<defs>
<clipPath id="clip0">
<rect width="24" height="21.7358" fill="white" transform="translate(0 0.113281)"/>
</clipPath>
</defs>
</svg>
