<svg width="33" height="35" viewBox="0 0 33 35" fill="none" xmlns="http://www.w3.org/2000/svg">
<path d="M0 2.14784V32.8506C0.000205692 32.9172 0.0200731 32.9823 0.057111 33.0376C0.0941489 33.093 0.146708 33.1362 0.208199 33.1618C0.269689 33.1874 0.337373 33.1943 0.402764 33.1816C0.468154 33.1689 0.52834 33.1372 0.575774 33.0904L16.5623 17.5L0.575774 1.908C0.52834 1.86123 0.468154 1.82951 0.402764 1.81681C0.337373 1.80411 0.269689 1.811 0.208199 1.83662C0.146708 1.86223 0.0941489 1.90543 0.057111 1.9608C0.0200731 2.01616 0.000205692 2.08123 0 2.14784Z" fill="white"/>
<path d="M23.2653 11.0938L3.22026 0.0502323L3.20776 0.0432011C2.86245 -0.144297 2.53433 0.322885 2.81714 0.594757L18.5302 15.6196L23.2653 11.0938Z" fill="white"/>
<path d="M2.81854 34.4052C2.53417 34.6771 2.86229 35.1443 3.20916 34.9568L3.22166 34.9497L23.2652 23.9061L18.5301 19.3788L2.81854 34.4052Z" fill="white"/>
<path d="M31.3574 15.5469L25.7598 12.4641L20.4966 17.5L25.7598 22.5335L31.3574 19.4531C32.88 18.6117 32.88 16.3883 31.3574 15.5469Z" fill="white"/>
</svg>
