<svg width="191" height="49" viewBox="0 0 191 49" fill="none" xmlns="http://www.w3.org/2000/svg">
<rect width="191" height="49" rx="3.96635" fill="#1F1F1F"/>
<path d="M52.5 11.53V11.95C52.5 12.8633 52.1867 13.6233 51.56 14.23C50.9333 14.83 50.1033 15.13 49.07 15.13C48.0033 15.13 47.12 14.78 46.42 14.08C45.7267 13.3733 45.38 12.5133 45.38 11.5C45.38 10.4867 45.7267 9.63 46.42 8.93C47.12 8.22333 47.9967 7.87 49.05 7.87C49.6967 7.87 50.29 8.02667 50.83 8.34C51.37 8.64667 51.7867 9.05333 52.08 9.56L51.28 10.03C51.08 9.65 50.7767 9.34667 50.37 9.12C49.97 8.88667 49.5267 8.77 49.04 8.77C48.24 8.77 47.5833 9.03333 47.07 9.56C46.5567 10.08 46.3 10.7267 46.3 11.5C46.3 12.2733 46.5567 12.92 47.07 13.44C47.59 13.96 48.26 14.22 49.08 14.22C49.78 14.22 50.3467 14.05 50.78 13.71C51.2133 13.3633 51.4767 12.9167 51.57 12.37H49V11.53H52.5ZM54.5609 14.12H57.8109V15H53.6309V8H57.7609V8.88H54.5609V11.03H57.5109V11.9H54.5609V14.12ZM63.4136 8V8.88H61.3436V15H60.4236V8.88H58.3636V8H63.4136ZM66.834 8H67.764V15H66.834V8ZM73.7456 8V8.88H71.6756V15H70.7556V8.88H68.6956V8H73.7456ZM82.986 14.07C82.286 14.7767 81.4293 15.13 80.416 15.13C79.4027 15.13 78.546 14.7767 77.846 14.07C77.146 13.3633 76.796 12.5067 76.796 11.5C76.796 10.4867 77.146 9.63 77.846 8.93C78.546 8.22333 79.4027 7.87 80.416 7.87C81.4293 7.87 82.286 8.22333 82.986 8.93C83.6927 9.63 84.046 10.4867 84.046 11.5C84.046 12.5067 83.6927 13.3633 82.986 14.07ZM78.486 13.44C79.006 13.96 79.6493 14.22 80.416 14.22C81.1827 14.22 81.8227 13.96 82.336 13.44C82.856 12.9133 83.116 12.2667 83.116 11.5C83.116 10.7267 82.856 10.08 82.336 9.56C81.8227 9.03333 81.1827 8.77 80.416 8.77C79.6493 8.77 79.006 9.03333 78.486 9.56C77.9727 10.08 77.716 10.7267 77.716 11.5C77.716 12.2667 77.9727 12.9133 78.486 13.44ZM89.5141 8H90.4441V15H89.6941L86.0941 9.77V15H85.1641V8H85.9141L89.5141 13.22V8Z" fill="white"/>
<path d="M63.024 27.312V28.464C63.024 30.768 62.264 32.656 60.744 34.128C59.224 35.584 57.24 36.312 54.792 36.312C52.2 36.312 50.056 35.472 48.36 33.792C46.68 32.112 45.84 30.048 45.84 27.6C45.84 25.168 46.68 23.112 48.36 21.432C50.056 19.736 52.152 18.888 54.648 18.888C56.216 18.888 57.648 19.248 58.944 19.968C60.24 20.688 61.248 21.656 61.968 22.872L59.592 24.24C59.144 23.44 58.48 22.8 57.6 22.32C56.72 21.824 55.736 21.576 54.648 21.576C52.888 21.576 51.44 22.152 50.304 23.304C49.168 24.456 48.6 25.896 48.6 27.624C48.6 29.352 49.168 30.784 50.304 31.92C51.456 33.056 52.96 33.624 54.816 33.624C56.304 33.624 57.512 33.28 58.44 32.592C59.384 31.888 59.984 30.952 60.24 29.784H54.624V27.312H63.024ZM71.0432 36.312C69.2832 36.312 67.7872 35.704 66.5552 34.488C65.3232 33.272 64.7072 31.776 64.7072 30C64.7072 28.224 65.3232 26.728 66.5552 25.512C67.7872 24.296 69.2832 23.688 71.0432 23.688C72.8192 23.688 74.3152 24.296 75.5312 25.512C76.7632 26.728 77.3792 28.224 77.3792 30C77.3792 31.776 76.7632 33.272 75.5312 34.488C74.3152 35.704 72.8192 36.312 71.0432 36.312ZM68.3792 32.712C69.0992 33.432 69.9872 33.792 71.0432 33.792C72.0992 33.792 72.9872 33.432 73.7072 32.712C74.4272 31.992 74.7872 31.088 74.7872 30C74.7872 28.912 74.4272 28.008 73.7072 27.288C72.9872 26.568 72.0992 26.208 71.0432 26.208C69.9872 26.208 69.0992 26.568 68.3792 27.288C67.6592 28.008 67.2992 28.912 67.2992 30C67.2992 31.088 67.6592 31.992 68.3792 32.712ZM85.3869 36.312C83.6269 36.312 82.1309 35.704 80.8989 34.488C79.6669 33.272 79.0509 31.776 79.0509 30C79.0509 28.224 79.6669 26.728 80.8989 25.512C82.1309 24.296 83.6269 23.688 85.3869 23.688C87.1629 23.688 88.6589 24.296 89.8749 25.512C91.1069 26.728 91.7229 28.224 91.7229 30C91.7229 31.776 91.1069 33.272 89.8749 34.488C88.6589 35.704 87.1629 36.312 85.3869 36.312ZM82.7229 32.712C83.4429 33.432 84.3309 33.792 85.3869 33.792C86.4429 33.792 87.3309 33.432 88.0509 32.712C88.7709 31.992 89.1309 31.088 89.1309 30C89.1309 28.912 88.7709 28.008 88.0509 27.288C87.3309 26.568 86.4429 26.208 85.3869 26.208C84.3309 26.208 83.4429 26.568 82.7229 27.288C82.0029 28.008 81.6429 28.912 81.6429 30C81.6429 31.088 82.0029 31.992 82.7229 32.712ZM103.619 24H106.163V35.448C106.163 37.272 105.563 38.672 104.363 39.648C103.163 40.624 101.707 41.112 99.9947 41.112C97.2267 41.112 95.3307 40.144 94.3067 38.208L96.5387 36.912C97.1627 38.144 98.3307 38.76 100.043 38.76C101.163 38.76 102.035 38.464 102.659 37.872C103.299 37.296 103.619 36.488 103.619 35.448V33.984C102.643 35.376 101.251 36.072 99.4427 36.072C97.7467 36.072 96.3147 35.472 95.1467 34.272C93.9787 33.056 93.3947 31.592 93.3947 29.88C93.3947 28.168 93.9787 26.712 95.1467 25.512C96.3147 24.296 97.7467 23.688 99.4427 23.688C101.251 23.688 102.643 24.384 103.619 25.776V24ZM97.0667 32.568C97.8027 33.288 98.7147 33.648 99.8027 33.648C100.891 33.648 101.795 33.288 102.515 32.568C103.251 31.848 103.619 30.952 103.619 29.88C103.619 28.808 103.251 27.912 102.515 27.192C101.795 26.472 100.891 26.112 99.8027 26.112C98.7147 26.112 97.8027 26.472 97.0667 27.192C96.3467 27.912 95.9867 28.808 95.9867 29.88C95.9867 30.952 96.3467 31.848 97.0667 32.568ZM109.184 36V18.48H111.776V36H109.184ZM116.825 31.104C117.017 32.016 117.457 32.72 118.145 33.216C118.833 33.696 119.673 33.936 120.665 33.936C122.041 33.936 123.073 33.44 123.761 32.448L125.897 33.696C124.713 35.44 122.961 36.312 120.641 36.312C118.689 36.312 117.113 35.72 115.913 34.536C114.713 33.336 114.113 31.824 114.113 30C114.113 28.208 114.705 26.712 115.889 25.512C117.073 24.296 118.593 23.688 120.449 23.688C122.209 23.688 123.649 24.304 124.769 25.536C125.905 26.768 126.473 28.264 126.473 30.024C126.473 30.296 126.441 30.656 126.377 31.104H116.825ZM116.801 28.992H123.857C123.681 28.016 123.273 27.28 122.633 26.784C122.009 26.288 121.273 26.04 120.425 26.04C119.465 26.04 118.665 26.304 118.025 26.832C117.385 27.36 116.977 28.08 116.801 28.992ZM141.546 23.688C143.194 23.688 144.602 24.304 145.77 25.536C146.938 26.752 147.522 28.24 147.522 30C147.522 31.776 146.938 33.272 145.77 34.488C144.602 35.704 143.194 36.312 141.546 36.312C139.722 36.312 138.322 35.64 137.346 34.296V40.8H134.754V24H137.346V25.728C138.322 24.368 139.722 23.688 141.546 23.688ZM138.426 32.76C139.146 33.48 140.05 33.84 141.138 33.84C142.226 33.84 143.13 33.48 143.85 32.76C144.57 32.024 144.93 31.104 144.93 30C144.93 28.896 144.57 27.984 143.85 27.264C143.13 26.528 142.226 26.16 141.138 26.16C140.05 26.16 139.146 26.528 138.426 27.264C137.706 27.984 137.346 28.896 137.346 30C137.346 31.104 137.706 32.024 138.426 32.76ZM149.871 36V18.48H152.463V36H149.871ZM164.977 24H167.569V36H164.977V34.272C164.001 35.632 162.601 36.312 160.777 36.312C159.129 36.312 157.721 35.704 156.553 34.488C155.385 33.256 154.801 31.76 154.801 30C154.801 28.224 155.385 26.728 156.553 25.512C157.721 24.296 159.129 23.688 160.777 23.688C162.601 23.688 164.001 24.36 164.977 25.704V24ZM158.473 32.76C159.193 33.48 160.097 33.84 161.185 33.84C162.273 33.84 163.177 33.48 163.897 32.76C164.617 32.024 164.977 31.104 164.977 30C164.977 28.896 164.617 27.984 163.897 27.264C163.177 26.528 162.273 26.16 161.185 26.16C160.097 26.16 159.193 26.528 158.473 27.264C157.753 27.984 157.393 28.896 157.393 30C157.393 31.104 157.753 32.024 158.473 32.76ZM178.678 24H181.438L176.83 36.384C175.678 39.488 173.726 40.96 170.974 40.8V38.376C171.79 38.424 172.446 38.248 172.942 37.848C173.438 37.464 173.846 36.856 174.166 36.024L174.286 35.784L169.198 24H172.03L175.606 32.712L178.678 24Z" fill="white"/>
<path d="M10 9.14784V39.8506C10.0002 39.9172 10.0201 39.9823 10.0571 40.0376C10.0941 40.093 10.1467 40.1362 10.2082 40.1618C10.2697 40.1874 10.3374 40.1943 10.4028 40.1816C10.4682 40.1689 10.5283 40.1372 10.5758 40.0904L26.5623 24.5L10.5758 8.908C10.5283 8.86123 10.4682 8.82951 10.4028 8.81681C10.3374 8.80411 10.2697 8.811 10.2082 8.83662C10.1467 8.86223 10.0941 8.90543 10.0571 8.9608C10.0201 9.01616 10.0002 9.08123 10 9.14784Z" fill="white"/>
<path d="M33.2653 18.0938L13.2203 7.05023L13.2078 7.0432C12.8624 6.8557 12.5343 7.32289 12.8171 7.59476L28.5302 22.6196L33.2653 18.0938Z" fill="white"/>
<path d="M12.8185 41.4052C12.5342 41.6771 12.8623 42.1443 13.2092 41.9568L13.2217 41.9497L33.2652 30.9061L28.5301 26.3788L12.8185 41.4052Z" fill="white"/>
<path d="M41.3574 22.5469L35.7598 19.4641L30.4966 24.5L35.7598 29.5335L41.3574 26.4531C42.88 25.6117 42.88 23.3883 41.3574 22.5469Z" fill="white"/>
</svg>
