<svg width="62" height="62" viewBox="0 0 62 62" fill="none" xmlns="http://www.w3.org/2000/svg">
<path d="M18.3031 25.9705V56.9758C18.3031 59.7156 16.0751 61.9448 13.3353 61.9448H4.969C2.22922 61.9448 0 59.7156 0 56.9758V25.9705C0 23.232 2.22922 21.0028 4.969 21.0028H13.3353C16.0751 21.0028 18.3031 23.232 18.3031 25.9705ZM46.3804 51.1176C45.8108 51.1176 45.3489 50.6558 45.3489 50.0861C45.3489 49.564 45.7473 49.0547 46.4264 49.0547H57.1737C58.5418 49.0547 59.7409 48.1296 60.0779 46.8037C60.3207 45.8484 60.3251 44.8328 60.0684 43.8661C59.724 42.5691 58.5251 41.6827 57.183 41.6827H49.7326C49.0097 41.6827 48.5543 41.0398 48.7046 40.4081C48.8165 39.9377 49.2581 39.6198 49.7416 39.6198H58.0588C59.4312 39.6198 60.6317 38.6886 60.9658 37.3575C61.2068 36.398 61.2028 35.3819 60.9424 34.4179C60.5936 33.1273 59.3977 32.2478 58.0609 32.2478H49.7429C49.1935 32.2478 48.7139 31.8332 48.6783 31.285C48.6394 30.6843 49.1151 30.1849 49.7076 30.1849H58.9838C60.5831 30.1849 61.9689 28.918 61.9812 27.2366C62.2451 24.0584 59.7258 21.3303 56.5416 21.3303H42.2546V12.8466C42.2546 7.25355 38.7232 2.21493 33.4666 0.308035C30.7169 -0.690407 27.8878 1.40086 27.8878 4.24817V8.51579C27.8878 12.6403 26.641 16.6088 24.2829 19.9919C21.9763 23.301 21.8064 23.7219 20.7864 24.3271C20.4589 24.5214 20.2609 24.8771 20.2753 25.2578C20.4374 29.5096 20.5083 52.4565 20.1876 57.8946C20.1527 58.4876 20.625 58.9863 21.2191 58.9852L51.9527 58.933C54.7958 58.9286 56.7259 56.7015 56.8729 54.2725C56.9767 52.5584 55.5957 51.1176 53.8784 51.1176H46.3804Z" fill="black"/>
</svg>
