<svg width="673" height="400" viewBox="0 0 673 400" fill="none" xmlns="http://www.w3.org/2000/svg">
<g clip-path="url(#clip0)">
<path d="M185.388 29.821C272.844 24.7638 364.54 51.1081 351.06 89.2973C343.262 111.391 368.606 103.38 397.965 95.3696C419.35 89.534 442.868 83.6985 457.255 89.5012C481.558 99.3041 471.843 129.145 483.602 141.169C497.847 155.742 512.271 152.912 527.767 150.081C541.585 147.557 556.262 145.032 572.436 154.852C606.745 175.682 592.477 370.48 578.507 370.452L49.4281 369.486L43.0975 369.692C43.0975 369.692 4.29559 313.734 39.4213 281.06C74.547 248.384 50.4294 233.444 46.1606 220.816C41.2594 206.316 29.8229 180.992 79.6526 162.408C129.482 143.824 116.616 103.388 115.391 95.0152C114.166 86.6421 97.9316 34.8786 185.388 29.821" fill="#ECECEC"/>
<path d="M495.047 130.814H478.301C474.489 116.765 476.102 97.1055 457.254 89.5021C456.516 89.2045 455.753 88.9372 454.967 88.7003V59.3164H495.047V130.814Z" fill="#CDD1DF"/>
<path d="M454.967 369.54V88.6997C455.753 88.9374 456.516 89.2044 457.253 89.5037C476.103 97.1066 474.489 116.765 478.301 130.814H454.967V369.54" fill="#001E89" fill-opacity="0.13"/>
<path d="M398.996 369.54V153.942H439.073V203.63H398.996V369.54Z" fill="#001E89" fill-opacity="0.13"/>
<path d="M511.746 152.312V126.528H551.827V148.001C550.236 147.861 548.661 147.798 547.101 147.798C540.441 147.798 534.016 148.939 527.766 150.081C522.306 151.078 516.977 152.076 511.746 152.312" fill="#CDD1DF"/>
<path d="M511.746 369.54V152.312C516.977 152.076 522.306 151.079 527.766 150.081C534.016 148.939 540.441 147.798 547.101 147.798C548.661 147.798 550.236 147.861 551.827 148.001V182.536H511.746V369.54Z" fill="#001E89" fill-opacity="0.13"/>
<path d="M343.022 369.54V116.972H383.102V175.181H343.022V369.54Z" fill="#001E89" fill-opacity="0.13"/>
<path d="M287.051 369.54V191.856H327.131V232.807H287.051V369.54Z" fill="#001E89" fill-opacity="0.13"/>
<path d="M495.047 149.443C491.208 147.702 487.397 145.054 483.601 141.17C480.961 138.472 479.403 134.878 478.301 130.814H495.047V149.443Z" fill="#001E89"/>
<path d="M495.047 369.54H454.967V130.814H478.301C479.403 134.878 480.961 138.472 483.6 141.17C487.397 145.054 491.208 147.702 495.047 149.443V369.54" fill="#001E89"/>
<path d="M439.073 369.54H398.996V203.63H439.073V369.54Z" fill="#001E89"/>
<path d="M551.827 369.54H511.746V182.536H551.827V369.54Z" fill="#001E89"/>
<path d="M383.102 369.54H343.022V175.181H383.102V369.54Z" fill="#001E89"/>
<path d="M327.131 369.54H287.051V232.807H327.131V369.54Z" fill="#001E89"/>
<path d="M571.305 61.6899L539.368 85.8431L551.551 86.6202L475.316 220.794L433.102 157.51L373.392 296.792L334.984 242.238L287.112 309.908L290.124 322.02L334.962 258.944L375.561 316.61L435.054 177.839L476.013 239.242L560.412 90.6947L568.249 99.1216L571.305 61.6899" fill="#FFB800"/>
<path d="M250.598 279.838C204.768 243.342 166.26 196.138 137.104 140.712C116.092 157.592 95.0805 174.47 74.0688 191.35C107.78 255.434 152.303 310.012 205.292 352.208C220.394 328.084 235.496 303.962 250.598 279.838" fill="#3C8F7C"/>
<path d="M127.234 153.946C114.182 164.6 101.13 175.252 88.0781 185.904C91.1863 191.698 90.0585 199.516 85.4279 203.482C115.063 255.882 152.203 301.41 195.452 338.354C198.988 333.046 205.652 332.016 210.442 335.902C219.964 320.924 229.488 305.944 239.01 290.966C234.602 287.39 233.974 280.08 237.508 274.776C199.528 242.334 166.913 202.354 140.889 156.338C136.262 160.302 130.095 159.28 127.234 153.946" fill="#96D9C9"/>
<path d="M179.981 273.734C189.766 261.106 189.673 242.476 180.442 231.33C171.187 220.214 155.374 219.692 144.434 230.93C133.513 242.144 132.469 262.078 142.874 274.594C153.267 287.124 170.216 286.342 179.981 273.734Z" fill="#50BFA5"/>
<path d="M179.333 237.898C178.104 239.264 176.874 240.628 175.644 241.992C178.585 247.384 177.963 252.956 174.791 256.598C171.589 260.262 168.004 260.602 162.539 257.364C158.57 255.122 156.662 254.46 155.452 255.77C154.429 256.876 154.09 258.884 156.259 261.626C157.437 263.114 158.614 264.108 159.657 264.808C161.046 265.742 161.484 267.852 160.629 269.476C159.801 271.044 158.052 271.564 156.714 270.61C155.619 269.83 154.424 268.766 153.135 267.288C152.071 268.464 151.007 269.636 149.943 270.81C148.829 269.414 147.721 268.008 146.62 266.598C147.778 265.342 148.936 264.088 150.094 262.832C147.285 257.406 147.843 252.01 151.104 248.588C154.704 244.808 158.866 245.97 163.638 248.962C166.946 251.026 168.864 251.352 170.235 249.828C171.679 248.218 171.209 245.764 169.389 243.444C168.139 241.85 166.69 240.636 165.261 239.736C163.857 238.85 163.475 236.688 164.419 235.072C164.454 235.012 164.488 234.952 164.522 234.894C165.379 233.426 167.016 232.93 168.264 233.744C169.76 234.72 171.37 236.116 172.792 237.772C173.947 236.514 175.102 235.254 176.256 233.994C177.275 235.302 178.301 236.604 179.333 237.898" fill="#3C8F7C"/>
<path d="M216.088 306.23C205.644 297.286 195.58 287.81 185.919 277.828C184.263 279.98 182.608 282.134 180.952 284.286C190.748 294.408 200.954 304.018 211.544 313.086C213.058 310.8 214.572 308.514 216.088 306.23" fill="#50BFA5"/>
<path d="M241.254 265.124C183.688 257.822 127.233 238.562 74.8619 208.358C64.9057 231.684 54.9495 255.012 44.9933 278.338C105.547 313.262 170.821 335.532 237.38 343.972C238.67 317.69 239.962 291.406 241.254 265.124Z" fill="#3C8F7C"/>
<path d="M72.7793 223.526C66.6765 238.15 60.5741 252.772 54.4713 267.396C59.9987 270.526 62.8441 277.262 60.7701 282.598C112.077 310.176 166.528 328.752 222.074 337.628C222.544 331.744 227.816 327.778 233.868 328.598C234.796 312.208 235.724 295.82 236.652 279.432C231.084 278.676 226.964 273.174 227.434 267.294C178.655 259.5 130.839 243.186 85.7833 218.97C83.7111 224.302 77.8661 226.406 72.7793 223.526Z" fill="#96D9C9"/>
<path d="M177.068 293.658C179.374 279.012 170.182 264.27 156.733 259.788C143.276 255.342 129.316 262.4 125.33 276.49C121.349 290.552 130.192 306.866 145.33 311.88C160.463 316.912 174.771 308.28 177.068 293.658Z" fill="#50BFA5"/>
<path d="M158.983 265.524C158.585 267.19 158.187 268.854 157.788 270.518C162.974 273.406 165.159 278.122 164.191 282.512C163.208 286.934 160.267 288.898 153.947 288.912C149.411 289.008 147.433 289.384 147.026 290.996C146.68 292.358 147.368 294.112 150.589 295.262C152.337 295.886 153.843 296.118 155.089 296.182C156.75 296.266 158.162 297.734 158.214 299.426C158.263 301.062 157.003 302.302 155.376 302.176C154.046 302.076 152.49 301.796 150.65 301.232C150.302 302.668 149.954 304.102 149.606 305.536C147.957 304.954 146.31 304.362 144.666 303.764C145.056 302.22 145.446 300.676 145.835 299.132C140.747 296.154 138.593 291.61 139.746 287.352C141.017 282.65 145.192 281.604 150.791 281.724C154.668 281.798 156.489 281.15 156.931 279.292C157.396 277.332 155.788 275.606 153.076 274.626C151.214 273.952 149.364 273.672 147.686 273.634C146.036 273.596 144.648 272.06 144.675 270.33C144.676 270.268 144.677 270.204 144.678 270.142C144.703 268.572 145.878 267.404 147.358 267.46C149.133 267.528 151.21 267.874 153.252 268.516C153.638 266.972 154.023 265.426 154.408 263.882C155.93 264.438 157.456 264.984 158.983 265.524" fill="#3C8F7C"/>
<path d="M214.82 148.952C213.424 148.484 212.05 147.956 210.722 147.318C209.222 146.596 207.278 145.752 206.05 145.564C203.464 145.166 199.024 145.43 196.571 148.082C193.516 151.386 188.087 148.678 189.18 165.98C190.418 185.562 201.344 183.412 201.608 183.08C201.874 182.75 211.352 170.552 211.352 170.552C211.352 170.552 214.666 177.778 214.666 177.512C214.666 177.256 231.59 154.582 214.82 148.952" fill="#0E2E35"/>
<path d="M226.336 278.048C181.045 295.942 131.074 304.122 79.0542 302.158C82.5066 324.292 85.959 346.428 89.4114 368.562C149.558 370.834 207.336 361.376 259.702 340.686C248.58 319.808 237.458 298.928 226.336 278.048Z" fill="#3C8F7C"/>
<path d="M84.4984 314.754C86.7636 328.574 89.029 342.392 91.2942 356.212C96.7578 356.374 101.923 360.426 102.861 365.406C152.899 365.772 201.096 357.884 245.64 342.034C243.282 337.288 245.302 332.058 250.086 330.218C243.242 317.148 236.396 304.08 229.55 291.01C225.146 292.702 219.618 290.126 217.262 285.382C178.147 299.3 135.822 306.228 91.8816 305.906C92.819 310.882 89.526 314.902 84.4984 314.754Z" fill="#96D9C9"/>
<path d="M192.668 326.398C187.625 314.114 174.163 306.46 162.308 308.49C150.462 310.552 143.531 321.728 147.094 334.268C150.647 346.786 164.578 355.8 177.908 353.49C191.243 351.196 197.705 338.66 192.668 326.398Z" fill="#50BFA5"/>
<path d="M166.579 312.012C167.054 313.464 167.527 314.916 168.001 316.368C173.105 316.482 176.861 319.24 178.17 323.034C179.484 326.86 178.242 329.584 173.644 332.18C170.383 334.11 169.116 335.21 169.559 336.626C169.932 337.822 171.238 338.898 174.113 338.472C175.672 338.24 176.876 337.802 177.813 337.342C179.062 336.728 180.764 337.288 181.578 338.576C182.365 339.824 182.016 341.298 180.774 341.868C179.758 342.334 178.496 342.754 176.897 343.07C177.302 344.324 177.707 345.576 178.112 346.83C176.643 347.052 175.172 347.268 173.699 347.476C173.275 346.122 172.85 344.768 172.426 343.414C167.351 343.188 163.696 340.55 162.582 336.782C161.35 332.622 163.912 330.104 168.046 327.906C170.905 326.378 171.935 325.132 171.404 323.512C170.842 321.804 168.879 321.126 166.453 321.474C164.787 321.714 163.312 322.256 162.071 322.912C160.852 323.558 159.135 322.936 158.361 321.586C158.333 321.536 158.305 321.488 158.276 321.438C157.574 320.212 157.894 318.826 158.998 318.266C160.323 317.592 161.995 317.01 163.778 316.672C163.35 315.318 162.921 313.964 162.492 312.61C163.857 312.418 165.219 312.218 166.579 312.012" fill="#3C8F7C"/>
<path d="M231.046 313.852C220.274 317.67 209.276 320.994 198.079 323.816C198.944 325.902 199.809 327.986 200.674 330.072C212.028 327.21 223.18 323.84 234.104 319.968C233.084 317.93 232.066 315.89 231.046 313.852Z" fill="#50BFA5"/>
<path d="M151.611 351.048V367.264C151.611 369.886 180.855 372.01 216.93 372.01C253.004 372.01 282.248 369.886 282.248 367.264V351.048H151.611Z" fill="#E59F39"/>
<path d="M198.881 371.828V351.048H151.611V367.264C151.611 369.43 171.585 371.258 198.881 371.828Z" fill="#EAB054"/>
<path d="M201.08 371.87C206.154 371.962 211.464 372.01 216.93 372.01C225.074 372.01 232.87 371.902 240.06 371.704V351.048H201.08V371.87Z" fill="#EAB054"/>
<path d="M242.678 371.628C265.95 370.902 282.248 369.222 282.248 367.264V351.048H242.678V371.628Z" fill="#EAB054"/>
<path d="M282.248 350.876C282.248 353.498 253.004 355.624 216.93 355.624C180.855 355.624 151.611 353.498 151.611 350.876C151.611 348.256 180.855 346.13 216.93 346.13C253.004 346.13 282.248 348.256 282.248 350.876Z" fill="#E59F39"/>
<path d="M270.718 350.876C270.718 352.694 246.636 354.168 216.93 354.168C187.223 354.168 163.141 352.694 163.141 350.876C163.141 349.06 187.223 347.586 216.93 347.586C246.636 347.586 270.718 349.06 270.718 350.876Z" fill="#FFB800"/>
<path d="M140.435 333.89V350.106C140.435 352.726 169.68 354.852 205.754 354.852C241.828 354.852 271.072 352.726 271.072 350.106V333.89H140.435Z" fill="#E59F39"/>
<path d="M187.705 354.668V333.89H140.435V350.106C140.435 352.272 160.409 354.1 187.705 354.668Z" fill="#EAB054"/>
<path d="M189.905 354.712C194.979 354.802 200.288 354.852 205.754 354.852C213.898 354.852 221.694 354.744 228.884 354.546V333.89H189.905V354.712Z" fill="#EAB054"/>
<path d="M231.502 354.468C254.774 353.742 271.072 352.062 271.072 350.106V333.89H231.502V354.468Z" fill="#EAB054"/>
<path d="M271.072 333.718C271.072 336.34 241.828 338.464 205.754 338.464C169.68 338.464 140.435 336.34 140.435 333.718C140.435 331.096 169.68 328.972 205.754 328.972C241.828 328.972 271.072 331.096 271.072 333.718Z" fill="#E59F39"/>
<path d="M259.542 333.718C259.542 335.536 235.46 337.008 205.754 337.008C176.047 337.008 151.966 335.536 151.966 333.718C151.966 331.9 176.047 330.426 205.754 330.426C235.46 330.426 259.542 331.9 259.542 333.718Z" fill="#FFB800"/>
<path d="M147.881 316.276V332.49C147.881 335.112 177.125 337.236 213.2 337.236C249.274 337.236 278.518 335.112 278.518 332.49V316.276H147.881Z" fill="#E59F39"/>
<path d="M195.151 337.054V316.276H147.881V332.49C147.881 334.656 167.855 336.484 195.151 337.054" fill="#EAB054"/>
<path d="M197.351 337.096C202.426 337.188 207.734 337.236 213.2 337.236C221.344 337.236 229.14 337.128 236.33 336.93V316.276H197.351V337.096Z" fill="#EAB054"/>
<path d="M238.948 336.854C262.22 336.128 278.518 334.448 278.518 332.49V316.276H238.948V336.854Z" fill="#EAB054"/>
<path d="M278.518 316.102C278.518 318.724 249.274 320.85 213.2 320.85C177.125 320.85 147.881 318.724 147.881 316.102C147.881 313.482 177.125 311.356 213.2 311.356C249.274 311.356 278.518 313.482 278.518 316.102Z" fill="#E59F39"/>
<path d="M266.988 316.102C266.988 317.92 242.906 319.394 213.2 319.394C183.493 319.394 159.411 317.92 159.411 316.102C159.411 314.286 183.493 312.812 213.2 312.812C242.906 312.812 266.988 314.286 266.988 316.102Z" fill="#FFB800"/>
<path d="M140.435 298.902V315.116C140.435 317.738 169.68 319.864 205.754 319.864C241.828 319.864 271.072 317.738 271.072 315.116V298.902H140.435Z" fill="#E59F39"/>
<path d="M187.705 319.68V298.902H140.435V315.116C140.435 317.284 160.409 319.11 187.705 319.68Z" fill="#EAB054"/>
<path d="M189.905 319.722C194.979 319.814 200.288 319.864 205.754 319.864C213.898 319.864 221.694 319.754 228.884 319.556V298.902H189.905V319.722" fill="#EAB054"/>
<path d="M231.502 319.48C254.774 318.754 271.072 317.074 271.072 315.116V298.902H231.502V319.48Z" fill="#EAB054"/>
<path d="M271.072 298.73C271.072 301.35 241.828 303.476 205.754 303.476C169.68 303.476 140.435 301.35 140.435 298.73C140.435 296.108 169.68 293.982 205.754 293.982C241.828 293.982 271.072 296.108 271.072 298.73Z" fill="#E59F39"/>
<path d="M259.542 298.73C259.542 300.546 235.46 302.02 205.754 302.02C176.047 302.02 151.966 300.546 151.966 298.73C151.966 296.912 176.047 295.438 205.754 295.438C235.46 295.438 259.542 296.912 259.542 298.73Z" fill="#FFB800"/>
<path d="M597.763 349.664V365.256C597.763 367.778 569.639 369.822 534.951 369.822C500.258 369.822 472.134 367.778 472.134 365.256V349.664H597.763Z" fill="#E59F39"/>
<path d="M552.304 369.644V349.664H597.763V365.256C597.763 367.34 578.554 369.098 552.304 369.644Z" fill="#EAB054"/>
<path d="M550.19 369.686C545.309 369.774 540.206 369.822 534.95 369.822C527.119 369.822 519.619 369.718 512.707 369.526V349.664H550.19V369.686Z" fill="#EAB054"/>
<path d="M510.187 369.454C487.808 368.754 472.133 367.138 472.133 365.256V349.664H510.187V369.454Z" fill="#EAB054"/>
<path d="M472.134 349.498C472.134 352.018 500.258 354.062 534.951 354.062C569.639 354.062 597.763 352.018 597.763 349.498C597.763 346.976 569.639 344.934 534.951 344.934C500.258 344.934 472.134 346.976 472.134 349.498Z" fill="#E59F39"/>
<path d="M483.223 349.498C483.223 351.246 506.381 352.662 534.952 352.662C563.515 352.662 586.676 351.246 586.676 349.498C586.676 347.75 563.515 346.334 534.952 346.334C506.381 346.334 483.223 347.75 483.223 349.498Z" fill="#FFB800"/>
<path d="M608.512 333.162V348.756C608.512 351.276 580.389 353.32 545.697 353.32C511.004 353.32 482.882 351.276 482.882 348.756V333.162H608.512Z" fill="#E59F39"/>
<path d="M563.053 353.144V333.162H608.512V348.756C608.512 350.84 589.305 352.596 563.053 353.144Z" fill="#EAB054"/>
<path d="M560.938 353.186C556.058 353.274 550.951 353.32 545.697 353.32C537.864 353.32 530.365 353.216 523.452 353.026V333.162H560.938V353.186" fill="#EAB054"/>
<path d="M520.935 352.952C498.554 352.254 482.881 350.638 482.881 348.756V333.162H520.935V352.952" fill="#EAB054"/>
<path d="M482.882 332.996C482.882 335.518 511.004 337.562 545.697 337.562C580.389 337.562 608.512 335.518 608.512 332.996C608.512 330.476 580.389 328.432 545.697 328.432C511.004 328.432 482.882 330.476 482.882 332.996Z" fill="#E59F39"/>
<path d="M493.968 332.996C493.968 334.744 517.128 336.162 545.695 336.162C574.265 336.162 597.421 334.744 597.421 332.996C597.421 331.248 574.265 329.832 545.695 329.832C517.128 329.832 493.968 331.248 493.968 332.996Z" fill="#FFB800"/>
<path d="M601.35 316.222V331.816C601.35 334.338 573.226 336.38 538.536 336.38C503.842 336.38 475.723 334.338 475.723 331.816V316.222H601.35Z" fill="#E59F39"/>
<path d="M555.89 336.204V316.222H601.349V331.816C601.349 333.9 582.143 335.658 555.89 336.204Z" fill="#EAB054"/>
<path d="M553.776 336.246C548.898 336.334 543.791 336.38 538.536 336.38C530.705 336.38 523.207 336.276 516.293 336.086V316.222H553.776V336.246" fill="#EAB054"/>
<path d="M513.776 336.012C491.397 335.314 475.722 333.698 475.722 331.816V316.222H513.776V336.012Z" fill="#EAB054"/>
<path d="M475.723 316.058C475.723 318.578 503.842 320.622 538.536 320.622C573.226 320.622 601.35 318.578 601.35 316.058C601.35 313.536 573.226 311.492 538.536 311.492C503.842 311.492 475.723 313.536 475.723 316.058Z" fill="#E59F39"/>
<path d="M486.811 316.058C486.811 317.804 509.968 319.222 538.536 319.222C567.104 319.222 590.262 317.804 590.262 316.058C590.262 314.31 567.104 312.892 538.536 312.892C509.968 312.892 486.811 314.31 486.811 316.058Z" fill="#FFB800"/>
<path d="M608.512 299.516V315.108C608.512 317.63 580.389 319.674 545.697 319.674C511.004 319.674 482.882 317.63 482.882 315.108V299.516H608.512Z" fill="#E59F39"/>
<path d="M563.053 319.496V299.516H608.512V315.108C608.512 317.192 589.305 318.95 563.053 319.496" fill="#EAB054"/>
<path d="M560.938 319.538C556.058 319.626 550.951 319.674 545.697 319.674C537.864 319.674 530.365 319.57 523.452 319.378V299.516H560.938V319.538Z" fill="#EAB054"/>
<path d="M520.935 319.306C498.554 318.606 482.881 316.99 482.881 315.108V299.516H520.935V319.306Z" fill="#EAB054"/>
<path d="M482.882 299.35C482.882 301.87 511.004 303.914 545.697 303.914C580.389 303.914 608.512 301.87 608.512 299.35C608.512 296.828 580.389 294.786 545.697 294.786C511.004 294.786 482.882 296.828 482.882 299.35Z" fill="#E59F39"/>
<path d="M493.968 299.35C493.968 301.098 517.128 302.514 545.695 302.514C574.265 302.514 597.421 301.098 597.421 299.35C597.421 297.602 574.265 296.184 545.695 296.184C517.128 296.184 493.968 297.602 493.968 299.35Z" fill="#FFB800"/>
<path d="M637.737 280.566L633.966 293.74C633.355 295.87 609.102 290.79 579.797 282.396C550.489 274.002 527.225 265.47 527.835 263.34L531.611 250.168L637.737 280.566Z" fill="#E59F39"/>
<path d="M594.5 286.446L599.336 269.566L637.738 280.566L633.966 293.74C633.461 295.5 616.81 292.336 594.5 286.446" fill="#EAB054"/>
<path d="M592.702 285.97C588.559 284.864 584.234 283.668 579.794 282.396C573.177 280.5 566.872 278.598 561.076 276.764L565.882 259.984L597.548 269.054L592.702 285.97" fill="#EAB054"/>
<path d="M558.968 276.094C540.23 270.088 527.377 264.93 527.834 263.34L531.611 250.168L563.755 259.376L558.968 276.094Z" fill="#EAB054"/>
<path d="M531.647 250.028C531.039 252.156 554.299 260.688 583.607 269.082C612.914 277.478 637.165 282.556 637.775 280.426C638.386 278.296 615.123 269.766 585.815 261.37C556.508 252.976 532.257 247.898 531.647 250.028" fill="#E59F39"/>
<path d="M541.015 252.71C540.59 254.186 559.81 260.988 583.945 267.9C608.08 274.814 627.986 279.22 628.411 277.744C628.831 276.266 609.611 269.466 585.477 262.554C561.342 255.64 541.439 251.234 541.015 252.71Z" fill="#FFB800"/>
<path d="M603.418 189.9L607.436 203.002C608.085 205.12 584.981 214.082 555.838 223.02C526.691 231.958 502.539 237.488 501.89 235.37L497.872 222.27L603.418 189.9" fill="#E59F39"/>
<path d="M570.373 218.4L565.226 201.612L603.416 189.901L607.433 203.002C607.97 204.752 592.286 211.178 570.373 218.4" fill="#EAB054"/>
<path d="M568.606 218.98C564.532 220.312 560.251 221.666 555.835 223.02C549.256 225.038 542.932 226.882 537.075 228.504L531.957 211.816L563.447 202.158L568.606 218.98Z" fill="#EAB054"/>
<path d="M534.94 229.09C515.958 234.27 502.371 236.95 501.888 235.37L497.871 222.27L529.84 212.464L534.94 229.09Z" fill="#EAB054"/>
<path d="M497.83 222.13C498.478 224.248 522.631 218.718 551.776 209.78C580.921 200.842 604.023 191.879 603.374 189.761C602.726 187.643 578.572 193.172 549.423 202.11C520.278 211.05 497.177 220.012 497.83 222.13Z" fill="#E59F39"/>
<path d="M507.143 219.274C507.592 220.742 527.415 215.966 551.414 208.605C575.413 201.244 594.507 194.087 594.058 192.619C593.606 191.151 573.786 195.927 549.784 203.287C525.781 210.649 506.691 217.805 507.143 219.274Z" fill="#FFB800"/>
<path d="M259.014 352.896L260.568 361.152C260.654 362.224 260.622 364.938 260.854 365.876C261.726 369.4 276.544 360.836 272.656 360.148C272.304 360.086 269.754 357.506 269.17 356.414C268.154 354.512 267.22 350.97 267.22 350.97L259.014 352.896" fill="#F7A491"/>
<path d="M271.92 359.634C271.92 359.634 268.096 360.582 266.148 360.776C264.202 360.97 261.704 357.946 260.308 358.518C258.77 359.148 257.934 368.742 257.934 368.742C257.934 368.742 282.376 369.856 288.152 368.26C290.442 367.628 279.526 362.548 271.92 359.634" fill="#F47458"/>
<path d="M293.094 352.52L294.648 360.776C294.736 361.85 294.702 364.562 294.934 365.5C295.806 369.024 310.352 361.024 306.464 360.336C306.112 360.274 303.836 357.13 303.252 356.038C302.236 354.136 301.302 350.594 301.302 350.594L293.094 352.52" fill="#F7A491"/>
<path d="M305.626 359.634C305.626 359.634 301.8 360.582 299.854 360.776C297.908 360.97 295.41 357.946 294.014 358.518C292.476 359.148 291.64 368.742 291.64 368.742C291.64 368.742 316.082 369.856 321.858 368.26C324.148 367.628 313.232 362.548 305.626 359.634" fill="#F47458"/>
<path d="M208.348 270.046L252.814 259.732C252.814 259.732 272.754 254.46 277.568 260.648C282.382 266.836 302.822 352.246 302.822 352.246C302.822 352.246 292.278 353.162 291.59 352.704L266.91 308.898C264.562 304.732 263.018 300.16 262.358 295.424L260.606 282.88L242.5 288.152C242.5 288.152 221.642 292.736 213.162 287.466C204.68 282.194 208.348 270.046 208.348 270.046" fill="#041417"/>
<path d="M225.424 193.386C226.126 193.414 228.05 194.056 230.866 199.358C234.46 206.126 239.712 226.576 239.712 226.576L224.032 232.394L222.018 228.126L218.7 195.268C218.7 195.268 225.23 193.378 225.424 193.386Z" fill="#FF7A00"/>
<path d="M204.698 190.438C209.182 190.444 220.274 191.748 225.424 193.388C225.424 193.388 229.206 225.788 222.018 250.408C220.41 255.92 223.35 273.254 223.35 273.254L176.889 272.644C176.889 272.644 182.393 230.736 180.32 223.966C178.246 217.198 178.197 193.606 178.197 193.606C178.197 193.606 178.515 193.556 188.635 191.812C193.356 191 199.911 190.432 204.698 190.438" fill="#FF7C02"/>
<path d="M177.691 197.206C182.035 195.582 184.16 234.59 184.746 250.646C192.438 251.382 205.846 250.65 209.186 250.4C210.756 250.284 214.376 248.962 215.938 248.758C217.538 248.55 218.988 248.44 219.774 248.576C220.064 248.626 228.082 251.894 228.768 252.612C229.618 253.5 231.918 255.742 231.53 256.712C231.142 257.682 227.108 254.01 227.108 254.01L225.136 252.908C227.59 255.298 232.272 258.446 231.598 259.592C230.94 260.71 226.716 257.516 223.706 255.338C226.288 257.662 229.496 261.822 228.756 262.47C228.092 263.052 224.444 258.238 220.544 256.85C219.1 256.336 217.66 257.76 216.522 257.932C215.688 258.058 214.398 258.326 213.578 258.096L209.662 257.718C208.224 257.848 207.882 257.88 206.43 258.188C204.744 258.546 201.978 258.922 199.83 259.444C187.466 262.456 183.342 263.854 179.557 263.852C168.09 263.844 167.425 201.044 177.691 197.206" fill="#F7A491"/>
<path d="M169.447 233.828C168.633 217.382 168.753 197.112 178.003 193.654C181.653 192.288 188.087 200.494 186.93 234.162C181.992 234.568 174.742 234.896 169.447 233.828" fill="#F27501"/>
<path d="M272.48 223.778L228.708 226.636C227.55 226.712 226.552 227.48 226.184 228.58L214.852 262.332L190.721 263.908C190.046 263.954 189.534 264.536 189.578 265.21C189.622 265.884 190.205 266.394 190.88 266.35L259.562 261.864C261.45 261.742 263.09 260.52 263.75 258.748L275.346 227.63C276.07 225.686 274.55 223.642 272.48 223.778" fill="#D6D6D6"/>
<path d="M176.917 271.586L225.372 263.22C225.372 263.22 246.322 260.028 251.136 266.216C255.948 272.404 269.93 352.626 269.93 352.626C269.93 352.626 259.386 353.544 258.7 353.084C258.166 352.73 245.402 325.986 239.668 313.936C237.848 310.11 236.57 306.054 235.864 301.878L234.022 290.96L227.924 293.058C217.21 296.748 205.792 298.028 194.546 296.63C189.838 296.046 185.443 295.04 182.717 293.346C174.237 288.074 176.917 271.586 176.917 271.586" fill="#17282F"/>
<path d="M206.526 184.526L207.47 191.524C207.47 191.524 209.582 201.604 206.864 203.548C204.146 205.492 195.304 191.236 195.304 191.236L196.238 173.506L206.526 184.526" fill="#F7A491"/>
<path d="M195.937 179.252C198.182 185.3 203.53 189.018 207.326 190.458L206.526 184.526L196.238 173.506L195.937 179.252" fill="#F47458"/>
<path d="M205.968 154.212C211.728 153.286 216.892 157.902 216.75 163.648C216.686 166.146 216.482 169.264 215.96 172.622C214.708 180.7 209.178 187.812 205.522 187.178C201.866 186.542 192.666 179.574 194.286 168.08C195.286 160.984 199.923 155.184 205.968 154.212" fill="#F7A491"/>
<path d="M196.823 169.452C196.515 171.228 195.087 172.464 193.635 172.212C192.182 171.96 191.255 170.314 191.563 168.538C191.872 166.762 193.3 165.526 194.752 165.78C196.204 166.032 197.132 167.676 196.823 169.452Z" fill="#F7A491"/>
<path d="M194.752 165.78C194.752 165.78 199.173 166.874 200.814 164.04C202.454 161.206 208.32 155.092 215.778 157.628C223.234 160.162 209.214 151.462 208.618 151.462C208.022 151.462 200.862 151.412 200.862 151.412C200.862 151.412 195.345 155.936 195.146 156.434C194.947 156.932 193.356 162.35 193.356 162.35L194.752 165.78" fill="#0E2E35"/>
<path d="M411.373 369.11H521.414V329.06H411.373V369.11Z" fill="#50BFA5"/>
<path d="M411.373 340.05H521.414V334.896H411.373V340.05" fill="#96D9C9"/>
<path d="M411.373 350.114H521.414V344.96H411.373V350.114" fill="#96D9C9"/>
<path d="M411.373 360.178H521.414V355.026H411.373V360.178Z" fill="#96D9C9"/>
<path d="M411.373 369.11H521.414V363.958H411.373V369.11Z" fill="#96D9C9"/>
<path d="M452.337 369.11H475.223V329.06H452.337V369.11" fill="#FFB800"/>
<path d="M520.079 369.11H536.697V329.06H520.079V369.11Z" fill="#3C8F7C"/>
<path d="M643.707 368.542H35.6262V372.01H643.707V368.542Z" fill="#0E2E35"/>
<path d="M293.916 67.8342H205.409C205.367 67.3988 205.345 66.9591 205.345 66.5149C205.345 59.0035 211.433 52.9147 218.943 52.9147C221.344 52.9147 223.597 53.5392 225.554 54.6299C228.318 47.0173 235.617 41.5794 244.188 41.5794C251.389 41.5794 257.694 45.4209 261.163 51.1666C262.674 50.696 264.281 50.4431 265.948 50.4431C272.393 50.4431 277.952 54.2384 280.514 59.7159C281.393 59.485 282.317 59.3641 283.271 59.3641C288.458 59.3641 292.801 62.9835 293.916 67.8342" fill="#FBFEFE"/>
<path d="M333.801 121.804H266.824C266.791 121.477 266.773 121.143 266.773 120.807C266.773 115.122 271.381 110.515 277.065 110.515C278.882 110.515 280.588 110.988 282.066 111.813C284.161 106.052 289.682 101.936 296.168 101.936C301.617 101.936 306.389 104.844 309.016 109.192C310.159 108.835 311.375 108.645 312.635 108.645C317.513 108.645 321.721 111.516 323.66 115.661C324.326 115.489 325.026 115.395 325.745 115.395C329.673 115.395 332.958 118.135 333.801 121.804" fill="#FBFEFE"/>
<path d="M205.696 114.22H147.291C148.026 111.018 150.891 108.63 154.315 108.63C154.944 108.63 155.554 108.71 156.135 108.862C157.825 105.248 161.493 102.742 165.747 102.742C166.846 102.742 167.907 102.91 168.904 103.222C171.194 99.43 175.354 96.894 180.107 96.894C185.761 96.894 190.577 100.482 192.402 105.506C193.694 104.786 195.181 104.374 196.765 104.374C201.72 104.374 205.738 108.392 205.738 113.348C205.738 113.642 205.724 113.932 205.696 114.22" fill="#FBFEFE"/>
<path d="M270.936 159.906L271.716 169.396L277.228 163.188L295.054 148.588L279.852 153.378C279.852 153.378 272.368 157.014 272.024 157.494C271.68 157.974 270.936 159.906 270.936 159.906Z" fill="#D26805"/>
<path d="M262.858 155.83L295.054 148.588L270.936 159.906L262.858 155.83Z" fill="#FF7A00"/>
<path d="M283.318 166.934L273.394 161.982L295.054 148.588L283.318 166.934Z" fill="#FF7A00"/>
<path d="M267.176 165.176C268.664 164.616 269.76 164.496 269.77 164.494L269.698 163.804C269.65 163.81 268.502 163.936 266.932 164.526L267.176 165.176" fill="#FF7A00"/>
<path d="M259.37 171.76C260.068 170.052 261.082 168.564 262.38 167.336L262.858 167.84C261.63 169 260.672 170.406 260.012 172.022L259.37 171.76ZM258.498 182.238C258.222 180.368 258.134 178.598 258.236 176.972L258.928 177.016C258.83 178.592 258.916 180.316 259.184 182.136L259.19 182.176L258.502 182.27L258.498 182.238ZM259.274 187.462L259.96 187.364C260.252 189.394 260.458 191.052 260.614 192.584L259.924 192.654C259.77 191.132 259.564 189.482 259.274 187.462ZM260.262 197.86L260.954 197.844C260.998 199.728 260.942 201.456 260.784 203.126L260.094 203.06C260.248 201.418 260.304 199.716 260.262 197.86V197.86ZM257.46 213.032C257.8 212.318 258.112 211.574 258.39 210.82C258.704 209.968 258.982 209.076 259.216 208.17L259.886 208.342C259.648 209.27 259.362 210.184 259.04 211.06C258.756 211.834 258.434 212.598 258.086 213.33L257.46 213.032ZM251.288 221.264C252.592 220.072 253.766 218.788 254.778 217.448L255.332 217.864C254.294 219.24 253.092 220.556 251.754 221.776L251.288 221.264" fill="#FF7A00"/>
</g>
<defs>
<clipPath id="clip0">
<rect width="673" height="400" fill="white"/>
</clipPath>
</defs>
</svg>
