<svg width="40" height="40" viewBox="0 0 40 40" fill="none" xmlns="http://www.w3.org/2000/svg">
<path d="M39.7134 2.55203C39.7134 1.27734 38.6705 0.234375 37.3959 0.234375H2.26805C1.12086 0.234375 0.18219 1.17305 0.18219 2.32023V37.6798C0.18219 38.827 1.12086 39.7656 2.26805 39.7656H37.3958C38.6705 39.7656 39.7134 38.7227 39.7134 37.448V2.55203V2.55203Z" fill="#FF7A00"/>
<path d="M37.3959 38.1966H2.26805C1.12086 38.1966 0.18219 37.2579 0.18219 36.1107V37.6798C0.18219 38.827 1.12086 39.7657 2.26805 39.7657H37.3958C38.6705 39.7657 39.7134 38.7227 39.7134 37.448V35.8789C39.7134 37.1536 38.6705 38.1966 37.3959 38.1966V38.1966Z" fill="#D56703"/>
<path d="M33.2681 18.4766H23.4371L30.3887 11.525C30.9531 10.9605 30.9532 10.0455 30.3887 9.48102C29.8242 8.91656 28.9091 8.91656 28.3448 9.48102L21.3932 16.4326V6.60156C21.3932 5.80336 20.7461 5.15625 19.9479 5.15625C19.1497 5.15625 18.5026 5.80336 18.5026 6.60156V16.4326L11.551 9.48102C10.9866 8.91656 10.0715 8.91664 9.50703 9.48102C8.94258 10.0455 8.94258 10.9605 9.50703 11.525L16.4587 18.4766H6.6275C5.8293 18.4766 5.18219 19.1237 5.18219 19.9219C5.18219 20.7201 5.8293 21.3672 6.6275 21.3672H16.4585L9.50688 28.3188C8.94242 28.8832 8.94242 29.7983 9.50688 30.3627C9.64095 30.4971 9.80025 30.6037 9.97565 30.6763C10.151 30.749 10.3391 30.7863 10.5289 30.786C10.8988 30.786 11.2687 30.6448 11.5509 30.3627L18.5025 23.4111V33.2422C18.5025 34.0404 19.1496 34.6875 19.9478 34.6875C20.746 34.6875 21.3931 34.0404 21.3931 33.2422V23.4112L28.3447 30.3627C28.6269 30.6449 28.9968 30.7861 29.3666 30.7861C29.7365 30.7861 30.1064 30.6449 30.3886 30.3627C30.9531 29.7983 30.953 28.8832 30.3886 28.3188L23.437 21.3673H33.268C34.0663 21.3673 34.7134 20.7202 34.7134 19.922C34.7134 19.1237 34.0663 18.4766 33.2681 18.4766V18.4766Z" fill="white"/>
</svg>
