<svg width="50" height="50" viewBox="0 0 50 50" fill="none" xmlns="http://www.w3.org/2000/svg">
<path d="M0 20C0 8.9543 8.95431 0 20 0H30C41.0457 0 50 8.95431 50 20V50H20C8.9543 50 0 41.0457 0 30V20Z" fill="#FF7A00"/>
<path d="M30 15H20C17.2386 15 15 17.2386 15 20V30C15 32.7614 17.2386 35 20 35H30C32.7614 35 35 32.7614 35 30V20C35 17.2386 32.7614 15 30 15Z" stroke="#FAFAF9" stroke-width="2" stroke-linecap="round" stroke-linejoin="round"/>
<path d="M29 24.3701C29.1234 25.2023 28.9813 26.0523 28.5938 26.7991C28.2063 27.5459 27.5932 28.1515 26.8416 28.5297C26.0901 28.908 25.2385 29.0397 24.4078 28.906C23.5771 28.7723 22.8098 28.3801 22.2149 27.7852C21.6199 27.1903 21.2277 26.4229 21.0941 25.5923C20.9604 24.7616 21.0921 23.91 21.4703 23.1584C21.8486 22.4069 22.4542 21.7938 23.201 21.4063C23.9478 21.0188 24.7978 20.8766 25.63 21.0001C26.4789 21.1259 27.2649 21.5215 27.8717 22.1284C28.4785 22.7352 28.8741 23.5211 29 24.3701Z" stroke="#FAFAF9" stroke-width="2" stroke-linecap="round" stroke-linejoin="round"/>
<path d="M30.5 19.5H30.51" stroke="#FAFAF9" stroke-width="2" stroke-linecap="round" stroke-linejoin="round"/>
</svg>
