<svg width="50" height="50" viewBox="0 0 50 50" fill="none" xmlns="http://www.w3.org/2000/svg">
<path fill-rule="evenodd" clip-rule="evenodd" d="M6.5702 0.24292C2.94158 0.24292 0 3.1845 0 6.81312V32.2562C0 34.3842 1.01163 36.2758 2.58019 37.4765C3.7406 39.3359 5.80483 40.5729 8.158 40.5729H41.0637C44.6924 40.5729 47.6339 37.6314 47.6339 34.0028V8.55966C47.6339 6.4317 46.6223 4.54003 45.0538 3.33933C43.8933 1.48002 41.8291 0.24292 39.4759 0.24292H6.5702ZM45.0538 3.33933C43.9476 2.49258 42.5644 1.98946 41.0637 1.98946H8.158C4.52938 1.98946 1.5878 4.93104 1.5878 8.55966V34.0028C1.5878 35.2782 1.95124 36.4688 2.58019 37.4765C3.68637 38.3233 5.06953 38.8264 6.5702 38.8264H39.4759C43.1046 38.8264 46.0461 35.8848 46.0461 32.2562V6.81312C46.0461 5.53767 45.6827 4.3471 45.0538 3.33933Z" fill="#F5F5F5"/>
<path d="M6.80093 3.29817C5.27336 3.67596 3.56511 5.2528 2.90809 6.89535L2.5303 7.83161L2.48102 22.2368C2.43175 38.2352 2.41532 37.9888 3.4994 39.6642C4.05787 40.5512 4.912 41.3232 5.8154 41.7995C6.91591 42.358 8.13139 42.4073 20.1384 42.4073H32.0141V45.9388C32.0141 49.2731 32.0305 49.4702 32.3097 49.3224C32.4576 49.2239 33.5581 48.3369 34.7243 47.3185C35.9069 46.3165 37.6809 44.789 38.6992 43.9513L40.5225 42.4073H42.395C45.5815 42.4073 47.0434 41.9638 48.3903 40.5676C48.7681 40.1898 49.2937 39.4178 49.5401 38.8758L50 37.8903V22.6967V7.5031L49.4579 6.40259C48.8666 5.1871 47.8482 4.16872 46.6328 3.59383L45.8936 3.23247L26.5937 3.19962C15.9828 3.19962 7.08016 3.23247 6.80093 3.29817ZM23.1771 12.8414L23.2264 18.2618L26.5115 14.6153C30.2073 10.509 31.2749 9.32633 32.3426 8.19297L33.0817 7.40454L35.0199 7.45382L36.9417 7.5031L35.4306 9.22777C33.5252 11.3959 26.5115 19.3459 25.9859 19.9208L25.5917 20.3478L28.3348 24.1093C33.361 30.9916 37.533 36.7405 37.6644 36.9376C37.763 37.1018 37.3359 37.1511 35.7427 37.1511H33.7059L31.2092 33.8332C29.8295 31.9935 27.4642 28.8562 25.9531 26.8523L23.2264 23.2059L23.1771 30.1703L23.1443 37.1511H21.5017H19.8592V31.9771V26.8031H17.3132H14.7673V25.0784V23.3537H17.3132H19.8592V21.629V19.9043H17.3132H14.7673V18.0975V16.2907H17.3132H19.8592V11.8559V7.42097H21.5017H23.1443L23.1771 12.8414Z" fill="#F5F5F5"/>
</svg>
