<svg width="30" height="30" viewBox="0 0 30 30" fill="none" xmlns="http://www.w3.org/2000/svg">
<path d="M29.7851 1.91402C29.7851 0.958008 29.0029 0.175781 28.0469 0.175781H1.70105C0.840661 0.175781 0.136658 0.879785 0.136658 1.74018V28.2598C0.136658 29.1202 0.840661 29.8242 1.70105 29.8242H28.0468C29.0029 29.8242 29.7851 29.042 29.7851 28.086V1.91402V1.91402Z" fill="#FF7A00"/>
<path d="M28.0469 28.6474H1.70105C0.840661 28.6474 0.136658 27.9434 0.136658 27.083V28.2599C0.136658 29.1203 0.840661 29.8243 1.70105 29.8243H28.0468C29.0029 29.8243 29.7851 29.0421 29.7851 28.086V26.9092C29.7851 27.8652 29.0029 28.6474 28.0469 28.6474V28.6474Z" fill="#D56703"/>
<path d="M24.9511 13.8574H17.5778L22.7915 8.64375C23.2149 8.22041 23.2149 7.5341 22.7915 7.11076C22.3682 6.68742 21.6819 6.68742 21.2586 7.11076L16.0449 12.3244V4.95117C16.0449 4.35252 15.5596 3.86719 14.9609 3.86719C14.3623 3.86719 13.877 4.35252 13.877 4.95117V12.3244L8.66328 7.11076C8.24 6.68742 7.55363 6.68748 7.13029 7.11076C6.70695 7.5341 6.70695 8.22041 7.13029 8.64375L12.344 13.8574H4.97064C4.37199 13.8574 3.88666 14.3428 3.88666 14.9414C3.88666 15.5401 4.37199 16.0254 4.97064 16.0254H12.3439L7.13017 21.2391C6.70683 21.6624 6.70683 22.3487 7.13017 22.772C7.23072 22.8728 7.35021 22.9528 7.48175 23.0072C7.6133 23.0617 7.75431 23.0897 7.8967 23.0895C8.17408 23.0895 8.45152 22.9836 8.66322 22.772L13.8769 17.5583V24.9316C13.8769 25.5303 14.3622 26.0156 14.9609 26.0156C15.5595 26.0156 16.0449 25.5303 16.0449 24.9316V17.5584L21.2585 22.7721C21.4702 22.9837 21.7476 23.0896 22.025 23.0896C22.3024 23.0896 22.5798 22.9837 22.7915 22.7721C23.2149 22.3487 23.2148 21.6624 22.7915 21.2391L17.5778 16.0254H24.9511C25.5497 16.0254 26.035 15.5401 26.035 14.9415C26.0351 14.3428 25.5498 13.8574 24.9511 13.8574V13.8574Z" fill="white"/>
</svg>
