<svg width="24" height="22" viewBox="0 0 24 22" fill="none" xmlns="http://www.w3.org/2000/svg">
<g clip-path="url(#clip0)">
<path d="M22 15.4369V18.1538C22.0011 18.4061 21.9441 18.6557 21.8325 18.8868C21.7209 19.1179 21.5573 19.3254 21.3521 19.4959C21.1468 19.6664 20.9046 19.7962 20.6407 19.877C20.3769 19.9579 20.0974 19.9879 19.82 19.9652C16.7428 19.6623 13.787 18.71 11.19 17.1848C8.77382 15.7943 6.72533 13.9391 5.18999 11.7508C3.49997 9.38814 2.44824 6.69814 2.11999 3.89874C2.095 3.6483 2.12787 3.39589 2.21649 3.15757C2.30512 2.91926 2.44756 2.70027 2.63476 2.51455C2.82196 2.32883 3.0498 2.18044 3.30379 2.07884C3.55777 1.97724 3.83233 1.92464 4.10999 1.9244H7.10999C7.5953 1.92008 8.06579 2.07572 8.43376 2.36232C8.80173 2.64892 9.04207 3.04692 9.10999 3.48214C9.23662 4.35163 9.47144 5.20536 9.80999 6.02705C9.94454 6.3512 9.97366 6.7035 9.8939 7.04218C9.81415 7.38087 9.62886 7.69175 9.35999 7.93799L8.08999 9.08818C9.51355 11.3555 11.5864 13.2329 14.09 14.5221L15.36 13.372C15.6319 13.1285 15.9751 12.9606 16.3491 12.8884C16.7231 12.8162 17.1121 12.8426 17.47 12.9644C18.3773 13.271 19.3199 13.4837 20.28 13.5984C20.7658 13.6604 21.2094 13.882 21.5265 14.221C21.8437 14.56 22.0122 14.9927 22 15.4369Z" stroke="#FF7A00" stroke-width="2" stroke-linecap="round" stroke-linejoin="round"/>
</g>
<defs>
<clipPath id="clip0">
<rect width="24" height="21.7358" fill="white" transform="translate(0 0.113037)"/>
</clipPath>
</defs>
</svg>
